<?xml version="1.0" encoding="utf-8"?>

<!DOCTYPE svg PUBLIC "-//W3C//DTD SVG 1.1//EN" "http://www.w3.org/Graphics/SVG/1.1/DTD/svg11.dtd">
<!-- Uploaded to: SVG Repo, www.svgrepo.com, Generator: SVG Repo Mixer Tools -->
<svg version="1.1" id="_x32_" xmlns="http://www.w3.org/2000/svg" xmlns:xlink="http://www.w3.org/1999/xlink" 
	 width="800px" height="800px" viewBox="0 0 512 512"  xml:space="preserve">
<style type="text/css">
<![CDATA[
	.st0{fill:#ffffff;}
]]>
</style>
<g>
	<path class="st0" d="M406.344,336.641c-1.766,0-3.953,0-6.344,0V0h-32v336.844c-18.141,1.063-25,13.641-25,25.125
		c0,1.547,0,6.031,0,11.906c-4.875-29.281-17.125-55.906-32.422-75.766c19.953-16.016,32.766-40.547,32.766-68.109
		c0-39.906-26.797-73.5-63.344-83.922v25.328c23.063,9.484,39.344,32.156,39.344,58.594c0,26.422-16.281,49.094-39.344,58.563v48.75
		h26.531c4.594,9.703,8.266,20.016,10.781,30.594H280v68.156h41.344v29.172H280V512h65.344c0,0,0-27.375,0-79.094
		c3.453,7.031,10.719,10.406,21,10.406c0.469,0,1.094,0,1.656,0V512h32v-68.688c0.109,0,0.219,0,0.344,0
		c14,0,19.188-7.281,23.344-12.672c6.656-8.672,15.313-41.328,11.313-68C433.609,353.313,423.688,336.641,406.344,336.641z
		 M410.969,420.906l-0.344,0.438c-3.406,4.469-4.563,5.969-10.281,5.969h-34c-7.344,0-7.344-1.031-7.344-5.344v-60
		c0-8.266,6.063-9.328,11.344-9.328h36c7.688,0,12.406,9.391,12.844,12.375C422.75,388.813,414.406,416.172,410.969,420.906z"/>
	<rect x="480" class="st0" width="32" height="512"/>
	<rect class="st0" width="32" height="512"/>
	<path class="st0" d="M168.672,230c0,27.563,12.797,52.094,32.75,68.094c-15.297,19.875-27.547,46.5-32.422,75.766
		c0-5.859,0-10.344,0-11.891c0-11.484-6.859-24.063-25-25.125V0h-32v336.641c-2.391,0-4.578,0-6.344,0
		c-17.328,0-27.266,16.672-28.656,26c-4,26.672,4.656,59.328,11.328,68c4.141,5.391,9.328,12.672,23.328,12.672
		c0.125,0,0.234,0,0.344,0V512h32v-68.688c0.563,0,1.188,0,1.656,0c10.297,0,17.563-3.375,21.016-10.406c0,51.719,0,79.094,0,79.094
		H232v-46.766h-41.328v-29.172H232v-68.156h-37.297c2.5-10.578,6.172-20.906,10.766-30.594H232v-48.75
		c-23.047-9.469-39.328-32.141-39.328-58.563c0-26.438,16.281-49.109,39.328-58.594v-25.344
		C195.453,156.5,168.672,190.094,168.672,230z M153,421.969c0,4.313,0,5.344-7.344,5.344h-34c-5.719,0-6.875-1.5-10.281-5.969
		l-0.344-0.438c-3.422-4.734-11.781-32.094-8.219-55.891c0.453-2.984,5.172-12.375,12.844-12.375h36
		c5.281,0,11.344,1.063,11.344,9.328V421.969z"/>
	<rect x="240" class="st0" width="32" height="512"/>
</g>
</svg>