<?xml version="1.0" encoding="iso-8859-1"?>
<!-- Uploaded to: SVG Repo, www.svgrepo.com, Generator: SVG Repo Mixer Tools -->
<svg fill="#ffffff" height="800px" width="800px" version="1.1" id="Layer_1" xmlns="http://www.w3.org/2000/svg" xmlns:xlink="http://www.w3.org/1999/xlink" 
	 viewBox="0 0 512 512" xml:space="preserve">
<g>
	<g>
		<path d="M510.239,142.793l-21.31-42.619H23.071l-21.31,42.619c-2.587,5.173-2.304,11.326,0.728,16.25
			c3.044,4.913,8.425,7.913,14.207,7.913h478.609c5.782,0,11.163-3,14.207-7.913C512.544,154.12,512.827,147.968,510.239,142.793z"
			/>
	</g>
</g>
<g>
	<g>
		<path d="M450.783,0H61.217C45.87,0,33.391,12.478,33.391,27.826v38.956h445.217V27.826C478.609,12.478,466.13,0,450.783,0z"/>
	</g>
</g>
<g>
	<g>
		<path d="M0,200.348v16.696c0,33.75,27.468,61.217,61.217,61.217c18.347,0,34.848-8.12,46.076-20.956
			c12.186,12.902,29.436,20.956,48.533,20.956c19.923,0,37.837-8.772,50.087-22.653c12.25,13.881,30.164,22.653,50.087,22.653
			s37.837-8.772,50.087-22.653c12.25,13.881,30.163,22.653,50.087,22.653c19.098,0,36.348-8.054,48.533-20.956
			c11.227,12.837,27.728,20.956,46.076,20.956c33.75,0,61.217-27.468,61.217-61.217v-16.696H0z"/>
	</g>
</g>
<g>
	<g>
		<path d="M450.783,311.652c-16.511,0-32.543-4.326-46.62-12.305c-14.609,7.978-31.131,12.305-47.989,12.305
			c-17.75,0-35-4.739-50.087-13.457C291,306.913,273.75,311.652,256,311.652s-35-4.739-50.087-13.457
			c-15.087,8.717-32.337,13.457-50.087,13.457c-16.858,0-33.38-4.326-47.989-12.305c-14.077,7.978-30.109,12.305-46.62,12.305
			c-13.896,0-27.06-3.086-38.957-8.495v192.147c0,9.217,7.479,16.696,16.696,16.696h250.435h133.565h50.087
			c9.217,0,16.696-7.479,16.696-16.696V303.158C477.843,308.565,464.679,311.652,450.783,311.652z M256,428.522
			c0,9.217-7.479,16.696-16.696,16.696H105.739c-9.217,0-16.696-7.479-16.696-16.696v-66.783c0-9.217,7.479-16.696,16.696-16.696
			h133.565c9.217,0,16.696,7.479,16.696,16.696V428.522z M422.957,478.609H322.783v-116.87c0-9.22,7.475-16.696,16.696-16.696
			h66.783c9.22,0,16.696,7.475,16.696,16.696V478.609z"/>
	</g>
</g>
</svg>