<?xml version="1.0" encoding="utf-8"?>

<!DOCTYPE svg PUBLIC "-//W3C//DTD SVG 1.1//EN" "http://www.w3.org/Graphics/SVG/1.1/DTD/svg11.dtd">
<!-- Uploaded to: SVG Repo, www.svgrepo.com, Generator: SVG Repo Mixer Tools -->
<svg version="1.1" id="_x32_" xmlns="http://www.w3.org/2000/svg" xmlns:xlink="http://www.w3.org/1999/xlink" 
	 width="800px" height="800px" viewBox="0 0 512 512"  xml:space="preserve">
<style type="text/css">
<![CDATA[
	.st0{fill:#000000;}
]]>
</style>
<g>
	<path style="fill:#ffffff;" class="st0" d="M474.25,193.656c-20.859,0-37.766,16.906-37.766,37.75c0,14.078,7.797,26.203,19.203,32.703
		c-5.594,19.203-16.5,39.156-34.031,49.141c-35.063,19.906-66.703-11.859-48.219-97.75c18.078-2.813,31.969-18.313,31.969-37.188
		c0-20.844-16.906-37.75-37.766-37.75s-37.75,16.906-37.75,37.75c0,13.469,7.109,25.219,17.703,31.891
		c-10.063,49.516-25.453,69.281-44.406,66.688c-28.328-3.859-32.656-42.203-32.797-113.219
		c13.703-5.672,23.359-19.141,23.359-34.875c0-20.859-16.906-37.766-37.75-37.766s-37.75,16.906-37.75,37.766
		c0,15.75,9.656,29.219,23.375,34.875c-0.156,71.016-4.5,109.359-32.813,113.219c-18.969,2.594-34.359-17.172-44.406-66.688
		c10.594-6.688,17.703-18.422,17.703-31.891c0-20.844-16.906-37.75-37.766-37.75c-20.844,0-37.75,16.906-37.75,37.75
		c0,18.875,13.891,34.391,31.969,37.188c18.484,85.891-13.156,117.656-48.219,97.75c-17.531-9.984-28.438-29.938-34.031-49.156
		c11.406-6.484,19.188-18.609,19.188-32.688c0-20.844-16.906-37.75-37.75-37.75S0,210.563,0,231.406
		C0,250.438,14.125,266,32.406,268.625l26.281,152.344H256h197.313l26.281-152.344C497.875,266,512,250.438,512,231.406
		C512,210.563,495.094,193.656,474.25,193.656z"/>
</g>
</svg>