<?xml version="1.0" encoding="UTF-8" standalone="no"?>
<!-- Created with Inkscape (http://www.inkscape.org/) -->

<svg
   width="187.34724mm"
   height="66.774544mm"
   viewBox="0 0 187.34724 66.774544"
   version="1.1"
   id="svg1"
   inkscape:version="1.3 (0e150ed, 2023-07-21)"
   sodipodi:docname="gameLogoTemplate.svg"
   xml:space="preserve"
   xmlns:inkscape="http://www.inkscape.org/namespaces/inkscape"
   xmlns:sodipodi="http://sodipodi.sourceforge.net/DTD/sodipodi-0.dtd"
   xmlns="http://www.w3.org/2000/svg"
   xmlns:svg="http://www.w3.org/2000/svg"><sodipodi:namedview
     id="namedview1"
     pagecolor="#ffffff"
     bordercolor="#000000"
     borderopacity="0.25"
     inkscape:showpageshadow="2"
     inkscape:pageopacity="0.0"
     inkscape:pagecheckerboard="0"
     inkscape:deskcolor="#d1d1d1"
     inkscape:document-units="mm"
     inkscape:zoom="0.48343114"
     inkscape:cx="321.65905"
     inkscape:cy="1568.9928"
     inkscape:window-width="1920"
     inkscape:window-height="1027"
     inkscape:window-x="0"
     inkscape:window-y="25"
     inkscape:window-maximized="1"
     inkscape:current-layer="svg1" /><defs
     id="defs1" /><style
     type="text/css"
     id="style1">&#10;<![CDATA[
	.st0{fill:#000000;}
]]>&#10;</style><text
     xml:space="preserve"
     style="font-style:normal;font-variant:normal;font-weight:bold;font-stretch:normal;font-size:22.5778px;font-family:'Arial Black';-inkscape-font-specification:'Arial Black,  Bold';letter-spacing:-0.79375px;fill:#e2e8f0;stroke:none;stroke-width:1.5;stroke-dasharray:none"
     x="-1.0693589"
     y="66.487892"
     id="text7"
     inkscape:export-filename="gameLogos/scoundrel.svg"
     inkscape:export-xdpi="96"
     inkscape:export-ydpi="96"><tspan
       sodipodi:role="line"
       id="tspan7"
       style="font-style:normal;font-variant:normal;font-weight:bold;font-stretch:normal;font-size:22.5778px;font-family:'Arial Black';-inkscape-font-specification:'Arial Black,  Bold';letter-spacing:-0.79375px;fill:#e2e8f0;stroke:none;stroke-width:1.5"
       x="-1.0693589"
       y="66.487892">CARD CAPTURE</tspan></text><style
     type="text/css"
     id="style1-8">&#10;<![CDATA[
	.st0{fill:#000000;}
]]>&#10;</style><style
     type="text/css"
     id="style1-5">&#10;<![CDATA[
	.st0{fill:#000000;}
]]>&#10;</style><style
     type="text/css"
     id="style1-3">&#10;<![CDATA[
	.st0{fill:#000000;}
]]>&#10;</style><g
     id="g3"
     transform="matrix(0.078125,0,0,0.078125,73.673626,-1.4390543e-5)"
     style="fill:#e2e8f0">&#10;	<path
   class="st0"
   d="m 406.344,336.641 c -1.766,0 -3.953,0 -6.344,0 V 0 h -32 v 336.844 c -18.141,1.063 -25,13.641 -25,25.125 0,1.547 0,6.031 0,11.906 -4.875,-29.281 -17.125,-55.906 -32.422,-75.766 19.953,-16.016 32.766,-40.547 32.766,-68.109 0,-39.906 -26.797,-73.5 -63.344,-83.922 v 25.328 c 23.063,9.484 39.344,32.156 39.344,58.594 0,26.422 -16.281,49.094 -39.344,58.563 v 48.75 h 26.531 c 4.594,9.703 8.266,20.016 10.781,30.594 H 280 v 68.156 h 41.344 v 29.172 H 280 V 512 h 65.344 c 0,0 0,-27.375 0,-79.094 3.453,7.031 10.719,10.406 21,10.406 0.469,0 1.094,0 1.656,0 V 512 h 32 v -68.688 c 0.109,0 0.219,0 0.344,0 14,0 19.188,-7.281 23.344,-12.672 6.656,-8.672 15.313,-41.328 11.313,-68 -1.392,-9.327 -11.313,-25.999 -28.657,-25.999 z m 4.625,84.265 -0.344,0.438 c -3.406,4.469 -4.563,5.969 -10.281,5.969 h -34 C 359,427.313 359,426.282 359,421.969 v -60 c 0,-8.266 6.063,-9.328 11.344,-9.328 h 36 c 7.688,0 12.406,9.391 12.844,12.375 3.562,23.797 -4.782,51.156 -8.219,55.89 z"
   id="path1-4"
   style="fill:#e2e8f0" />&#10;	<rect
   x="480"
   class="st0"
   width="32"
   height="512"
   id="rect1-3"
   y="0"
   style="fill:#e2e8f0" />&#10;	<rect
   class="st0"
   width="32"
   height="512"
   id="rect2-0"
   x="0"
   y="0"
   style="fill:#e2e8f0" />&#10;	<path
   class="st0"
   d="m 168.672,230 c 0,27.563 12.797,52.094 32.75,68.094 -15.297,19.875 -27.547,46.5 -32.422,75.766 0,-5.859 0,-10.344 0,-11.891 0,-11.484 -6.859,-24.063 -25,-25.125 V 0 h -32 v 336.641 c -2.391,0 -4.578,0 -6.344,0 -17.328,0 -27.266,16.672 -28.656,26 -4,26.672 4.656,59.328 11.328,68 4.141,5.391 9.328,12.672 23.328,12.672 0.125,0 0.234,0 0.344,0 V 512 h 32 v -68.688 c 0.563,0 1.188,0 1.656,0 10.297,0 17.563,-3.375 21.016,-10.406 0,51.719 0,79.094 0,79.094 H 232 V 465.234 H 190.672 V 436.062 H 232 v -68.156 h -37.297 c 2.5,-10.578 6.172,-20.906 10.766,-30.594 H 232 v -48.75 c -23.047,-9.469 -39.328,-32.141 -39.328,-58.563 0,-26.438 16.281,-49.109 39.328,-58.594 V 146.061 C 195.453,156.5 168.672,190.094 168.672,230 Z M 153,421.969 c 0,4.313 0,5.344 -7.344,5.344 h -34 c -5.719,0 -6.875,-1.5 -10.281,-5.969 l -0.344,-0.438 c -3.422,-4.734 -11.781,-32.094 -8.219,-55.891 0.453,-2.984 5.172,-12.375 12.844,-12.375 h 36 c 5.281,0 11.344,1.063 11.344,9.328 z"
   id="path2"
   style="fill:#e2e8f0" />&#10;	<rect
   x="240"
   class="st0"
   width="32"
   height="512"
   id="rect3-4"
   y="0"
   style="fill:#e2e8f0" />&#10;</g></svg>
