<?xml version="1.0" encoding="UTF-8" standalone="no"?>
<!-- Created with Inkscape (http://www.inkscape.org/) -->

<svg
   width="262.99609mm"
   height="66.774864mm"
   viewBox="0 0 262.99609 66.774864"
   version="1.1"
   id="svg1"
   inkscape:version="1.3 (0e150ed, 2023-07-21)"
   sodipodi:docname="gameLogoTemplate.svg"
   xml:space="preserve"
   xmlns:inkscape="http://www.inkscape.org/namespaces/inkscape"
   xmlns:sodipodi="http://sodipodi.sourceforge.net/DTD/sodipodi-0.dtd"
   xmlns="http://www.w3.org/2000/svg"
   xmlns:svg="http://www.w3.org/2000/svg"><sodipodi:namedview
     id="namedview1"
     pagecolor="#ffffff"
     bordercolor="#000000"
     borderopacity="0.25"
     inkscape:showpageshadow="2"
     inkscape:pageopacity="0.0"
     inkscape:pagecheckerboard="0"
     inkscape:deskcolor="#d1d1d1"
     inkscape:document-units="mm"
     inkscape:zoom="0.48343114"
     inkscape:cx="321.65905"
     inkscape:cy="1568.9928"
     inkscape:window-width="1920"
     inkscape:window-height="1027"
     inkscape:window-x="0"
     inkscape:window-y="25"
     inkscape:window-maximized="1"
     inkscape:current-layer="svg1" /><defs
     id="defs1" /><style
     type="text/css"
     id="style1">&#10;<![CDATA[
	.st0{fill:#000000;}
]]>&#10;</style><path
     d="m 150.39784,0.0999413 c -0.68838,-0.24835 -1.45005,-0.0216 -1.89169,0.55663 -1.05501,1.38175 -4.51668,5.15679 -7.83672,6.01843 -0.51836,0.13333 -0.94337,0.51334 -1.13838,1.01506 -0.02,0.055 -2.17002,5.4933797 -7.99509,11.4201197 -5.82506,-5.92674 -7.97509,-11.3651797 -7.99509,-11.4201197 -0.19336,-0.50172 -0.61837,-0.88173 -1.13837,-1.01506 -3.98833,-1.03501 -7.88338,-5.9817 -7.92338,-6.03171 -0.44836,-0.57503 -1.22665,-0.79504 -1.90002,-0.53503 -0.68337,0.25666 -1.12001,0.92668 -1.07837,1.65333 0.0117,0.22501 0.33836,5.56006 2.70667,10.8617797 0.17336,0.38838 0.52664,1.18164 2.52839,1.49835 -0.24165,1.06664 -0.13164,1.60002 0.28664,2.10665 0.37165,0.44502 5.43007,5.81174 9.07011,8.33677 l -0.65165,0.65002 c -0.51336,-0.82001 -1.41666,-1.37003 -2.43839,-1.39003 h -0.0333 c -0.90665,0 -1.64837,0.72504 -1.66665,1.635 -0.015,0.81337 0.555,1.50166 1.32337,1.66166 0.155,0.66501 0.42501,1.30002 0.78165,1.89838 0.001,0.003 0.001,0.006 0.005,0.01 0.003,0.008 0.008,0.0133 0.0134,0.0198 l -8.10673,8.10525 c -0.65001,0.65163 -0.65001,1.70666 0,2.35668 0.325,0.32662 0.75164,0.48833 1.17837,0.48833 0.42664,0 0.85337,-0.16161 1.17837,-0.48833 l 8.11006,-8.10837 c 0.57665,0.33834 1.19501,0.59336 1.84838,0.74165 0.16664,0.74835 0.83501,1.30001 1.62338,1.30001 h 0.0566 c 0.92001,-0.03 1.64165,-0.80001 1.61001,-1.72002 -0.0283,-0.89669 -0.48836,-1.6767 -1.15837,-2.20003 1.17665,-0.97836 2.26503,-1.79498 3.1834,-2.44166 l 1.77502,1.78337 c -0.0566,0.0133 -0.10836,0.0447 -0.165,0.055 -1.35166,0.23836 -2.36839,1.41667 -2.41167,2.8034 -0.0317,0.92001 0.69001,1.69005 1.61166,1.72002 h 0.055 c 0.78837,0 1.45666,-0.55163 1.62338,-1.30002 0.64165,-0.14501 1.25165,-0.39497 1.82502,-0.72835 l 8.05162,8.09182 c 0.32669,0.32836 0.75338,0.4916 1.18343,0.4916 0.42499,0 0.84834,-0.16 1.17334,-0.48331 0.655,-0.64665 0.6584,-1.7034 0.01,-2.35671 l -8.04844,-8.0867 c 0.37165,-0.61168 0.65336,-1.26505 0.81336,-1.95169 0.76833,-0.16 1.33839,-0.84837 1.32339,-1.66166 -0.0165,-0.90997 -0.76001,-1.63501 -1.66665,-1.63501 h -0.0315 c -1.39666,0.0267 -2.59004,1.03166 -2.83669,2.38669 -0.0216,0.11661 -0.0834,0.22001 -0.11664,0.33337 l -1.26166,-1.26665 c 3.61669,-2.01668 9.78176,-8.55679 10.19351,-9.04846 0.42161,-0.5034 0.53163,-1.0367 0.28662,-2.10842 2.00336,-0.31664 2.35668,-1.10837 2.52838,-1.49665 2.37502,-5.3150297 2.62163,-10.6634897 2.63168,-10.8884897 0.0316,-0.72675 -0.41517,-1.39007 -1.09852,-1.63672 z"
     id="path1"
     style="display:inline;fill:#e2e8f0;stroke:none;stroke-width:0.676436;stroke-dasharray:none"
     inkscape:export-filename="gameLogos/clearTheDungeon.svg"
     inkscape:export-xdpi="96"
     inkscape:export-ydpi="96" /><text
     xml:space="preserve"
     style="font-style:normal;font-variant:normal;font-weight:bold;font-stretch:normal;font-size:22.5778px;font-family:'Arial Black';-inkscape-font-specification:'Arial Black,  Bold';letter-spacing:-0.79375px;fill:#e2e8f0;stroke:none;stroke-width:1.5;stroke-dasharray:none"
     x="-1.0693581"
     y="66.488228"
     id="text7"><tspan
       sodipodi:role="line"
       id="tspan7"
       style="font-style:normal;font-variant:normal;font-weight:bold;font-stretch:normal;font-size:22.5778px;font-family:'Arial Black';-inkscape-font-specification:'Arial Black,  Bold';letter-spacing:-0.79375px;fill:#e2e8f0;stroke:none;stroke-width:1.5"
       x="-1.0693581"
       y="66.488228">CLEAR THE DUNGEON</tspan></text></svg>
