<?xml version="1.0" encoding="UTF-8" standalone="no"?>
<!-- Created with Inkscape (http://www.inkscape.org/) -->

<svg
   width="300mm"
   height="100mm"
   viewBox="0 0 300 100"
   version="1.1"
   id="svg1"
   inkscape:version="1.3 (0e150ed, 2023-07-21)"
   sodipodi:docname="gameLogoTemplate.svg"
   xml:space="preserve"
   xmlns:inkscape="http://www.inkscape.org/namespaces/inkscape"
   xmlns:sodipodi="http://sodipodi.sourceforge.net/DTD/sodipodi-0.dtd"
   xmlns="http://www.w3.org/2000/svg"
   xmlns:svg="http://www.w3.org/2000/svg"><sodipodi:namedview
     id="namedview1"
     pagecolor="#ffffff"
     bordercolor="#000000"
     borderopacity="0.25"
     inkscape:showpageshadow="2"
     inkscape:pageopacity="0.0"
     inkscape:pagecheckerboard="0"
     inkscape:deskcolor="#d1d1d1"
     inkscape:document-units="mm"
     inkscape:zoom="0.48343114"
     inkscape:cx="321.65905"
     inkscape:cy="1568.9928"
     inkscape:window-width="1920"
     inkscape:window-height="1027"
     inkscape:window-x="0"
     inkscape:window-y="25"
     inkscape:window-maximized="1"
     inkscape:current-layer="svg1" /><defs
     id="defs1" /><rect
     style="display:none;fill:#059669;stroke:#059669;stroke-width:0"
     id="rect1"
     width="300"
     height="100"
     x="1.1293076e-06"
     y="1.0988268e-05"
     inkscape:label="Background"
     inkscape:export-filename="gameLogos/scoundrel.svg"
     inkscape:export-xdpi="96"
     inkscape:export-ydpi="96" /><style
     type="text/css"
     id="style1">&#10;<![CDATA[
	.st0{fill:#000000;}
]]>&#10;</style><text
     xml:space="preserve"
     style="font-style:normal;font-variant:normal;font-weight:bold;font-stretch:normal;font-size:22.5778px;font-family:'Arial Black';-inkscape-font-specification:'Arial Black,  Bold';letter-spacing:-0.79375px;fill:#e2e8f0;stroke:none;stroke-width:1.5;stroke-dasharray:none"
     x="17.43259"
     y="77.619606"
     id="text7"
     inkscape:export-filename="gameLogos/regicideSolitaire.svg"
     inkscape:export-xdpi="96"
     inkscape:export-ydpi="96"><tspan
       sodipodi:role="line"
       id="tspan7"
       style="font-style:normal;font-variant:normal;font-weight:bold;font-stretch:normal;font-size:22.5778px;font-family:'Arial Black';-inkscape-font-specification:'Arial Black,  Bold';letter-spacing:-0.79375px;fill:#e2e8f0;stroke:none;stroke-width:1.5"
       x="17.43259"
       y="77.619606">CLEAR THE DUNGEON</tspan></text><style
     type="text/css"
     id="style1-8">&#10;<![CDATA[
	.st0{fill:#000000;}
]]>&#10;</style><style
     type="text/css"
     id="style1-5">&#10;<![CDATA[
	.st0{fill:#000000;}
]]>&#10;</style><style
     type="text/css"
     id="style1-3">&#10;<![CDATA[
	.st0{fill:#000000;}
]]>&#10;</style><style
     type="text/css"
     id="style1-0">&#10;<![CDATA[
	.st0{fill:#000000;}
]]>&#10;</style><style
     type="text/css"
     id="style1-1">&#10;<![CDATA[
	.st0{fill:#000000;}
]]>&#10;</style><g
     style="fill:#e2e8f0"
     id="g9"
     transform="matrix(0.07812521,0,0,0.07812521,129.99991,11.131669)"><g
       id="g2"
       style="fill:#e2e8f0">&#10;	<g
   id="g1"
   style="fill:#e2e8f0">&#10;		<path
   d="M 497.916,1.279 C 489.105,-1.9 479.356,1.002 473.703,8.404 460.199,26.09 415.89,74.41 373.394,85.439 366.759,87.146 361.319,92.01 358.823,98.431 358.567,99.135 331.047,168.746 256.487,244.607 181.927,168.746 154.407,99.135 154.151,98.431 151.676,92.01 146.236,87.146 139.58,85.439 88.53,72.191 38.674,8.874 38.162,8.234 32.423,0.874 22.461,-1.942 13.842,1.386 5.095,4.671 -0.494,13.247 0.039,22.548 c 0.149,2.88 4.331,71.168 34.645,139.029 2.219,4.971 6.741,15.125 32.363,19.179 -3.093,13.653 -1.685,20.48 3.669,26.965 4.757,5.696 69.504,74.389 116.096,106.709 l -8.341,8.32 C 171.9,312.254 160.338,305.214 147.26,304.958 h -0.427 c -11.605,0 -21.099,9.28 -21.333,20.928 -0.192,10.411 7.104,19.221 16.939,21.269 1.984,8.512 5.44,16.64 10.005,24.299 0.021,0.043 0.021,0.085 0.064,0.128 0.043,0.107 0.107,0.171 0.171,0.256 L 48.914,475.583 c -8.32,8.341 -8.32,21.845 0,30.165 4.16,4.181 9.621,6.251 15.083,6.251 5.461,0 10.923,-2.069 15.083,-6.251 L 182.888,401.961 c 7.381,4.331 15.296,7.595 23.659,9.493 2.133,9.579 10.688,16.64 20.779,16.64 h 0.725 c 11.776,-0.384 21.013,-10.24 20.608,-22.016 -0.363,-11.477 -6.251,-21.461 -14.827,-28.16 15.061,-12.523 28.992,-22.976 40.747,-31.253 l 22.72,22.827 c -0.725,0.171 -1.387,0.576 -2.112,0.704 -17.301,3.051 -30.315,18.133 -30.869,35.883 -0.405,11.776 8.832,21.632 20.629,22.016 h 0.704 c 10.091,0 18.645,-7.061 20.779,-16.64 8.213,-1.856 16.021,-5.056 23.36,-9.323 l 103.06,103.574 c 4.181,4.203 9.643,6.293 15.147,6.293 5.44,0 10.859,-2.048 15.019,-6.187 8.384,-8.277 8.427,-21.803 0.128,-30.165 L 360.124,372.138 c 4.757,-7.829 8.363,-16.192 10.411,-24.981 9.835,-2.048 17.131,-10.859 16.939,-21.269 -0.213,-11.648 -9.728,-20.928 -21.333,-20.928 h -0.405 c -17.877,0.341 -33.152,13.205 -36.309,30.549 -0.277,1.493 -1.067,2.816 -1.493,4.267 L 311.785,323.563 C 358.078,297.75 436.99,214.038 442.26,207.744 c 5.397,-6.443 6.805,-13.269 3.669,-26.987 25.643,-4.053 30.165,-14.187 32.363,-19.157 30.4,-68.032 33.557,-136.491 33.685,-139.371 0.403,-9.302 -5.314,-17.793 -14.061,-20.95 z"
   id="path1-5"
   style="fill:#e2e8f0" />&#10;	</g>&#10;</g></g></svg>
