<?xml version="1.0" encoding="UTF-8" standalone="no"?>
<!-- Created with Inkscape (http://www.inkscape.org/) -->

<svg
   width="300mm"
   height="100mm"
   viewBox="0 0 300 100"
   version="1.1"
   id="svg1"
   inkscape:version="1.3 (0e150ed, 2023-07-21)"
   sodipodi:docname="gameLogoTemplate.svg"
   xml:space="preserve"
   xmlns:inkscape="http://www.inkscape.org/namespaces/inkscape"
   xmlns:sodipodi="http://sodipodi.sourceforge.net/DTD/sodipodi-0.dtd"
   xmlns="http://www.w3.org/2000/svg"
   xmlns:svg="http://www.w3.org/2000/svg"><sodipodi:namedview
     id="namedview1"
     pagecolor="#ffffff"
     bordercolor="#000000"
     borderopacity="0.25"
     inkscape:showpageshadow="2"
     inkscape:pageopacity="0.0"
     inkscape:pagecheckerboard="0"
     inkscape:deskcolor="#d1d1d1"
     inkscape:document-units="mm"
     inkscape:zoom="0.48343114"
     inkscape:cx="321.65905"
     inkscape:cy="1568.9928"
     inkscape:window-width="1920"
     inkscape:window-height="1027"
     inkscape:window-x="0"
     inkscape:window-y="25"
     inkscape:window-maximized="1"
     inkscape:current-layer="svg1" /><defs
     id="defs1" /><rect
     style="display:none;fill:#059669;stroke:#059669;stroke-width:0"
     id="rect1"
     width="300"
     height="100"
     x="1.1293076e-06"
     y="1.0988268e-05"
     inkscape:label="Background"
     inkscape:export-filename="gameLogos/scoundrel.svg"
     inkscape:export-xdpi="96"
     inkscape:export-ydpi="96" /><style
     type="text/css"
     id="style1">&#10;<![CDATA[
	.st0{fill:#000000;}
]]>&#10;</style><path
     d="m 17.816412,68.249819 q -0.04515,-1.08373 0.112889,-2.12231 0.180623,-1.03858 0.51929,-2.05458 0.4064,-1.37725 1.196623,-2.46098 0.790223,-1.10631 1.919113,-1.91911 1.422402,-1.03858 3.002848,-1.30952 1.603024,-0.27093 3.093159,0.0903 1.490134,0.36124 2.777069,1.30951 1.286935,0.94827 2.122313,2.34809 0.248356,0.4064 0.180623,0.74507 -0.04516,0.33866 -0.361245,0.67733 -0.72249,0.72249 -1.422402,1.39982 -0.699911,0.67734 -1.399823,1.37725 -0.361245,0.31609 -0.564445,0.29351 -0.2032,-0.0452 -0.383823,-0.49671 -0.451556,-1.06116 -1.512713,-1.55787 -0.632178,-0.31609 -1.106312,-0.13547 -0.451556,0.15805 -0.767645,0.58703 -0.293511,0.42898 -0.474134,0.99342 -0.180622,0.56445 -0.248356,1.016 -0.09031,0.58702 -0.04516,1.15147 0.04516,0.56444 0.09031,1.15147 0,0.11289 0,0.2032 0.02258,0.0677 0.04516,0.18062 0.248355,1.2192 1.061156,1.55787 0.812801,0.31609 1.85138,-0.33867 0.248356,-0.18062 0.474134,-0.38382 0.248356,-0.2032 0.496711,-0.4064 0.383823,-0.33867 0.632179,-0.33867 0.270933,0 0.6096,0.4064 0.654757,0.74507 1.286935,1.55787 0.632178,0.79022 1.264357,1.6256 0.4064,0.51929 0.361245,0.88054 -0.02258,0.33866 -0.451556,0.83537 -1.12889,1.26436 -2.551292,1.98685 -1.422401,0.72249 -2.935114,0.85796 -1.512713,0.15804 -3.002847,-0.29351 -1.467557,-0.45156 -2.686759,-1.58045 -1.557868,-1.30951 -2.325513,-2.98027 -0.745068,-1.67076 -0.812801,-3.72534 -0.02258,-0.13546 -0.02258,-0.27093 0,-0.15805 -0.02258,-0.33867 v -0.51929 z m 25.783824,2.39325 h 2.393247 q 0.519289,0 0.722489,0.22578 0.225778,0.2032 0.270934,0.72249 0.04516,0.24835 0.04516,0.49671 0,0.24835 0,0.47413 0,1.06116 0,2.09974 0,1.016 -0.04516,2.07716 0,0.51929 -0.2032,0.72249 -0.203201,0.18062 -0.72249,0.18062 -2.777069,0 -5.531561,0 -2.731914,0 -5.531561,-0.0452 -0.112889,0 -0.2032,0.0226 -0.06773,0.0226 -0.180623,0.0226 -0.451556,-0.0452 -0.654756,-0.22578 -0.180622,-0.18062 -0.2032,-0.63218 -0.04516,-1.28693 -0.09031,-2.52871 -0.04515,-1.26436 -0.04515,-2.55129 -0.04516,-2.07716 0,-4.13174 0.04515,-2.05458 0.04515,-4.15432 0,-0.97084 -0.04515,-1.94169 -0.04516,-0.97084 -0.09031,-1.94169 -0.02258,-0.67733 0.2032,-0.92569 0.248356,-0.24835 0.903112,-0.22578 1.422401,0 2.867381,0.0226 1.444979,0 2.889958,0 0.654756,0.0226 0.880534,0.27094 0.248356,0.22577 0.248356,0.90311 -0.02258,1.91911 -0.04516,3.81565 -0.02258,1.87395 -0.04516,3.74791 -0.04516,0.85796 -0.02258,1.73849 0.02258,0.88054 0.02258,1.76107 z m 9.911616,-4.96712 q 1.038578,0.11289 2.054579,0.13547 1.038579,0 2.05458,0.0226 0.564445,0.0226 0.745068,0.2032 0.180622,0.15804 0.225778,0.67733 0.04516,0.79023 0.04516,1.55787 0.02258,0.76765 0.04516,1.58045 0,0.67733 -0.654757,0.76764 -0.338667,0.0452 -0.654756,0.0677 -0.316089,0 -0.654756,0 -0.790223,0.0451 -1.557868,0.0226 -0.745068,-0.0226 -1.535291,-0.0226 v 0.58702 q 1.219202,0.0903 2.415825,0.0903 1.219201,-0.0226 2.438402,0 0.451556,0 0.903113,0.0226 0.451556,0.0226 0.880534,0.0677 0.564445,0.0677 0.835379,0.33867 0.270933,0.27093 0.270933,0.8128 0.02258,1.96427 0,3.92854 -0.02258,1.10631 -1.219201,1.10631 H 49.83167 q -0.745067,0 -1.106312,-0.33867 -0.361245,-0.33867 -0.474134,-1.06116 -0.06773,-0.65475 -0.135467,-1.30951 -0.04516,-0.65475 -0.02258,-1.33209 0.04516,-3.22862 0.06773,-6.43467 0.04516,-3.20605 0.09031,-6.45725 0,-0.11289 0,-0.22578 0,-0.13547 0.04516,-0.27093 0.09031,-0.97085 0.496711,-1.37725 0.428978,-0.4064 1.422402,-0.45156 1.467557,-0.0226 2.86738,0 1.422402,0 2.889959,-0.0226 0.632178,0 1.286934,-0.0226 0.677334,-0.0452 1.332091,-0.0452 0.451556,0 0.880534,0.0226 0.451556,0.0226 0.880534,0.0677 0.361245,0.0226 0.51929,0.22578 0.180622,0.2032 0.248355,0.45156 0.06773,0.18062 0.06773,0.4064 0.02258,0.22578 0.04515,0.42898 v 3.52213 q -0.02258,0.72249 -0.293511,1.016 -0.270934,0.29352 -1.016001,0.29352 -2.77707,-0.0226 -5.599295,-0.13547 h -0.812791 z m 16.572104,8.21832 q -0.112889,0.65476 -0.180622,1.2192 -0.06773,0.54187 -0.180623,1.12889 -0.04515,0.24836 -0.09031,0.45156 -0.04516,0.2032 -0.158045,0.38382 -0.2032,0.56445 -0.903112,0.56445 -1.309512,-0.0226 -2.619024,-0.0226 -1.286935,0 -2.57387,0 -0.474134,0 -0.745067,-0.22578 -0.270934,-0.22578 -0.270934,-0.67733 0,-0.54187 0.04516,-1.06116 0.04515,-0.51929 0.158044,-1.016 0.609601,-2.93511 1.219202,-5.77992 0.632178,-2.86738 1.264357,-5.73476 0.180622,-0.8128 0.428978,-1.55787 0.270933,-0.76764 0.519289,-1.53529 0.293512,-0.85795 0.767645,-1.17404 0.496712,-0.33867 1.399824,-0.33867 1.490135,0 2.957692,0.0226 1.467557,0 2.935114,-0.0452 0.677334,-0.0226 1.061157,0.27094 0.4064,0.29351 0.654756,0.8128 0.112889,0.2032 0.158044,0.42898 0.06773,0.22577 0.135467,0.47413 0.451556,1.80622 0.857957,3.58987 0.428978,1.76107 0.835378,3.56729 0.406401,1.76107 0.72249,3.47698 0.338667,1.69334 0.677334,3.40925 0.09031,0.42898 0.180622,0.83538 0.112889,0.38382 0.225778,0.76765 0.04516,0.15804 0.06773,0.31608 0.02258,0.15805 0.02258,0.31609 0.02258,0.72249 -0.654757,0.74507 h -0.225778 q -1.174045,0.0226 -2.325513,0.0677 -1.151468,0.0226 -2.348091,0.0677 -0.564445,0.0226 -0.812801,-0.15805 -0.248356,-0.2032 -0.361245,-0.74506 -0.112889,-0.54187 -0.180622,-1.06116 -0.06773,-0.51929 -0.135467,-1.016 -0.04516,-0.24836 -0.06773,-0.42898 -0.02258,-0.18062 -0.06773,-0.33867 z m 1.12889,-9.84392 q -0.270933,1.46756 -0.496711,2.91254 -0.203201,1.4224 -0.293512,2.91253 h 1.580446 q -0.2032,-1.51271 -0.4064,-2.93511 -0.2032,-1.44498 -0.383823,-2.88996 z m 21.810125,7.47325 q 0.903112,0.38383 1.151468,1.06116 0.270933,0.67733 0.270933,1.49014 0,0.65475 0.02258,1.17404 0.04516,0.51929 0.04516,1.15147 -0.02258,0.63218 -0.225778,0.90311 -0.180623,0.27093 -0.767646,0.29351 -2.054579,0.0677 -4.19947,0 -0.587023,-0.0226 -0.92569,-0.2032 -0.338667,-0.18062 -0.383823,-0.76764 -0.06773,-0.65476 -0.04516,-1.39983 0.04516,-0.74506 0,-1.39982 0,-0.72249 -0.338667,-0.97085 -0.316089,-0.24835 -0.993423,-0.0903 0.02258,0.49671 0.04516,0.88054 0.02258,0.36124 0.04516,0.88053 0.04516,0.8128 0,1.71591 -0.04516,0.56445 -0.338667,0.90312 -0.293511,0.31609 -0.880534,0.36124 -0.948267,0.0677 -1.896535,0.0903 -0.92569,0 -1.896535,-0.0677 -0.609601,-0.0226 -0.880535,-0.31609 -0.248355,-0.29351 -0.248355,-0.94827 0.04515,-2.91253 0.04515,-5.66703 0,-2.75449 0.02258,-5.66702 v -5.08001 q 0,-0.67733 0.270934,-0.97084 0.293511,-0.29352 0.948267,-0.31609 1.332091,-0.0677 2.619025,-0.0903 1.286935,-0.0452 2.596447,-0.0903 0.654756,0 1.309513,0 0.677334,0 1.354668,0.0226 0.790223,0 1.512712,0.22578 0.745068,0.2032 1.422402,0.58702 0.632178,0.38383 1.016001,0.90311 0.383822,0.51929 0.654756,1.12889 0.316089,0.72249 0.519289,1.80623 0.225779,1.08373 0.293512,2.25778 0.06773,1.15147 -0.02258,2.2352 -0.09031,1.06116 -0.383823,1.73849 -0.541867,1.19663 -1.73849,2.2352 z m -5.825073,-3.88338 q 0.790223,0.42898 1.264357,0.11289 0.496712,-0.31609 0.519289,-1.24178 0.02258,-0.54186 0,-1.12889 -0.02258,-0.58702 -0.112889,-1.17404 -0.180622,-1.2192 -1.422401,-0.97085 -0.293511,0.0452 -0.428978,0.18062 -0.135467,0.11289 -0.112889,0.42898 0.06773,0.94827 0.135467,1.89654 0.09031,0.94826 0.158044,1.89653 z m 29.734932,0 q 0.0452,2.07716 0.0903,4.10916 0.0452,2.032 0.0677,4.10916 0,1.016 -0.4064,1.4224 -0.4064,0.4064 -1.42241,0.4064 -1.94169,0 -3.8608,-0.13546 -0.2032,0 -0.4064,-0.0226 -0.18062,-0.0452 -0.38382,-0.0903 -0.38383,-0.11289 -0.54187,-0.29351 -0.15804,-0.2032 -0.15804,-0.58703 -0.0226,-0.31609 -0.0226,-0.63217 0.0226,-0.33867 0.0226,-0.65476 v -9.07628 -0.76764 h -1.46756 q -0.45156,0 -0.92569,0.0226 -0.45156,0 -0.94827,-0.0452 -0.6096,-0.0903 -0.92569,-0.4064 -0.31609,-0.33867 -0.36124,-0.99342 -0.0452,-1.06116 -0.0452,-2.12232 0,-1.06115 0.0226,-2.14489 0.0226,-0.76764 0.36124,-1.06115 0.36125,-0.31609 1.10631,-0.29352 2.9577,0.0226 5.87023,0.0452 2.93512,0 5.89281,0.0452 0.31609,0 0.65475,-0.0226 0.33867,-0.0226 0.65476,-0.0452 0.56445,-0.0452 0.90311,0.2032 0.33867,0.24836 0.38383,0.79023 0.0677,0.36124 0.0451,0.76764 -0.0226,0.38382 -0.0226,0.76765 -0.0226,0.79022 -0.0452,1.55786 -0.0226,0.74507 -0.0903,1.49014 -0.0677,0.65475 -0.29352,0.83538 -0.22577,0.15804 -0.90311,0.18062 -0.67733,0.0226 -1.37724,0.0677 -0.69992,0.0452 -1.46756,0.0903 z m 12.14681,4.3801 q -0.0452,1.2192 -0.0903,2.32551 -0.0452,1.08373 -0.15805,2.16747 -0.0677,0.67733 -0.36124,0.94827 -0.27093,0.24835 -0.99342,0.24835 -1.15147,0 -2.30294,-0.0226 -1.15147,0 -2.32551,-0.0226 -0.69992,-0.0452 -0.74507,-0.81281 -0.0226,-0.45155 -0.0226,-0.85795 0,-0.42898 0,-0.88054 0.0226,-2.77707 0.0226,-5.53156 0.0226,-2.75449 0.0677,-5.55414 0,-0.94826 -0.0452,-1.87395 -0.0226,-0.94827 -0.0226,-1.87396 0,-0.56445 0.0903,-1.016 0.0677,-0.45156 0.27093,-0.6096 0.22578,-0.15805 0.67734,-0.15805 0.79022,-0.0226 1.53529,-0.0226 0.76764,0 1.55787,0 h 1.55786 q 0.54187,0.0226 0.74507,0.22577 0.22578,0.2032 0.24836,0.74507 0.0677,1.76107 0.0452,3.52214 0,1.76107 0.13546,3.70276 h 2.16747 q 0.0677,-1.51272 -0.0226,-2.98027 -0.0903,-1.46756 -0.11289,-2.95769 -0.0452,-0.69992 0,-1.49014 0.0452,-0.88053 0.85796,-0.88053 1.15147,-0.0226 2.30294,-0.0226 1.15146,-0.0226 2.37067,0.0226 0.58702,0.0452 0.8128,0.29351 0.24835,0.24835 0.22577,0.8128 -0.0452,0.83538 -0.0226,1.71591 0.0452,0.85796 0.0452,1.71591 0,0.33867 -0.0226,0.65476 0,0.31609 0,0.67733 0.0226,2.39325 0.0452,4.76392 0.0226,2.37067 0.0452,4.78649 0,0.63218 -0.0226,1.24178 -0.0226,0.6096 -0.11288,1.19663 -0.0452,0.45155 -0.13547,0.74506 -0.0677,0.27094 -0.22578,0.42898 -0.13547,0.15805 -0.38382,0.22578 -0.22578,0.0452 -0.58703,0.0677 -1.12889,0.0677 -2.2352,0.0677 -1.08373,0 -2.19004,0 -0.38383,0 -0.51929,-0.15805 -0.11289,-0.15804 -0.11289,-0.56444 0,-1.08374 0,-2.09974 0.0226,-1.03858 0.0452,-2.07716 v -0.83537 z m 15.08194,-6.34437 q 1.03858,0.11289 2.05458,0.13547 1.03858,0 2.05458,0.0226 0.56445,0.0226 0.74507,0.2032 0.18062,0.15804 0.22578,0.67733 0.0452,0.79023 0.0452,1.55787 0.0226,0.76765 0.0451,1.58045 0,0.67733 -0.65476,0.76764 -0.33867,0.0452 -0.65475,0.0677 -0.31609,0 -0.65476,0 -0.79022,0.0451 -1.55787,0.0226 -0.74507,-0.0226 -1.53529,-0.0226 v 0.58702 q 1.2192,0.0903 2.41583,0.0903 1.2192,-0.0226 2.4384,0 0.45156,0 0.90311,0.0226 0.45156,0.0226 0.88054,0.0677 0.56444,0.0677 0.83538,0.33867 0.27093,0.27093 0.27093,0.8128 0.0226,1.96427 0,3.92854 -0.0226,1.10631 -1.2192,1.10631 H 140.4814 q -0.74507,0 -1.10631,-0.33867 -0.36125,-0.33867 -0.47414,-1.06116 -0.0677,-0.65475 -0.13546,-1.30951 -0.0452,-0.65475 -0.0226,-1.33209 0.0452,-3.22862 0.0677,-6.43467 0.0452,-3.20605 0.0903,-6.45725 0,-0.11289 0,-0.22578 0,-0.13547 0.0452,-0.27093 0.0903,-0.97085 0.49671,-1.37725 0.42898,-0.4064 1.4224,-0.45156 1.46756,-0.0226 2.86738,0 1.4224,0 2.88996,-0.0226 0.63218,0 1.28693,-0.0226 0.67734,-0.0452 1.3321,-0.0452 0.45156,0 0.88053,0.0226 0.45156,0.0226 0.88054,0.0677 0.36124,0.0226 0.51929,0.22578 0.18062,0.2032 0.24835,0.45156 0.0677,0.18062 0.0677,0.4064 0.0226,0.22578 0.0452,0.42898 v 3.52213 q -0.0226,0.72249 -0.29351,1.016 -0.27093,0.29352 -1.016,0.29352 -2.77707,-0.0226 -5.5993,-0.13547 h -0.8128 z m 18.01706,2.57387 q -0.0226,-2.05458 -0.0677,-4.04142 -0.0451,-2.00943 -0.0677,-4.06401 v -0.58702 q 0.0903,-0.69991 0.36124,-0.94827 0.29352,-0.27093 0.97085,-0.27093 1.19662,0 2.34809,0 1.15147,0 2.34809,0.0452 0.72249,0.0452 1.44498,0.0903 0.72249,0.0452 1.44498,0.2032 1.96427,0.38382 3.18347,1.60302 1.24178,1.19662 1.76107,3.11574 0.42898,1.4224 0.56444,2.88995 0.15805,1.44498 0.0452,2.9577 -0.0903,1.016 -0.4064,2.032 -0.29351,0.99342 -0.76765,1.94169 -0.94826,1.6256 -2.30293,2.68676 -1.33209,1.03858 -3.18347,1.46755 -1.15147,0.27094 -2.34809,0.27094 -1.016,-0.0226 -2.00943,-0.0226 -0.97084,0 -1.98684,0 -0.72249,0 -1.03858,-0.29351 -0.29351,-0.29351 -0.29351,-1.08374 -0.0226,-2.07715 -0.0226,-4.04142 0.0226,-1.96427 0.0226,-3.95112 z m 6.36694,3.43183 q 0.67733,0.15804 0.99342,-0.11289 0.31609,-0.29351 0.45156,-0.72249 0.0452,-0.24836 0.0903,-0.47413 0.0677,-0.24836 0.0677,-0.49672 0,-1.51271 -0.0677,-3.048 -0.0226,-0.33867 -0.0677,-0.67733 -0.0451,-0.33867 -0.15804,-0.69991 -0.18062,-0.60961 -0.51929,-0.94827 -0.31609,-0.36125 -1.03858,-0.18062 0.0452,1.73849 0.11289,3.68018 0.0903,1.91911 0.13547,3.68018 z m 15.93991,-2.48356 q 0,0.79022 0.22577,1.49014 0.45156,1.12889 1.71592,1.06115 0.45155,-0.0452 0.79022,-0.38382 0.36124,-0.36125 0.49671,-0.90311 0.0452,-0.18063 0.0677,-0.36125 0.0452,-0.2032 0.0452,-0.38382 0.0677,-2.55129 -0.0677,-4.98969 -0.13547,-2.43841 -0.18063,-4.94454 -0.11289,-1.4224 1.26436,-1.44498 0.72249,-0.0452 1.46756,-0.0677 0.76764,-0.0452 1.51271,-0.0452 0.4064,0 0.79022,0 0.38383,-0.0226 0.69992,0.0452 0.31608,0.0677 0.51928,0.27094 0.2032,0.18062 0.27094,0.58702 0.4064,2.66418 0.49671,5.50898 0.11289,2.82223 -0.13547,5.50899 -0.0677,1.03858 -0.24835,1.89653 -0.18063,0.85796 -0.54187,1.58045 -0.33867,0.72249 -0.90311,1.35467 -0.56445,0.6096 -1.39983,1.17404 -1.67075,1.016 -3.4544,1.33209 -1.78365,0.31609 -3.70276,0 -0.74507,-0.11289 -1.51271,-0.27093 -0.74507,-0.15804 -1.39982,-0.45156 -1.55787,-0.67733 -2.43841,-1.8288 -0.88053,-1.17404 -1.06115,-2.86738 -0.0677,-0.56444 -0.13547,-1.10631 -0.0452,-0.56445 -0.0452,-1.12889 0.0226,-1.69334 0.0677,-3.36409 0.0677,-1.69334 0.11289,-3.38667 0.0226,-0.79023 0.0452,-1.55787 0.0226,-0.76765 0.0677,-1.55787 0,-0.18062 0,-0.36124 0,-0.18063 0.0677,-0.33867 0.13547,-0.51929 0.33867,-0.67734 0.22577,-0.18062 0.65475,-0.15804 1.10631,0.0452 2.21263,0.0452 1.10631,0 2.21262,0.0226 1.15147,0 1.17405,1.10632 0.11289,2.48355 0.0226,4.85422 -0.0903,2.37067 -0.11288,4.74134 z m 17.88161,1.60302 q 0,1.46756 0,2.91254 0.0226,1.44498 0,2.86738 0,0.56445 -0.2032,0.72249 -0.18062,0.13547 -0.74507,0.15805 -0.99342,0.0452 -1.98685,0.0677 -0.99342,0 -2.032,0.0451 -0.47413,0.0226 -0.79022,-0.0226 -0.29351,-0.0452 -0.47414,-0.18063 -0.18062,-0.15804 -0.27093,-0.42897 -0.0677,-0.29352 -0.0677,-0.74507 -0.0452,-1.76107 -0.0903,-3.4544 -0.0226,-1.69334 -0.0452,-3.38667 -0.0452,-2.39325 -0.0903,-4.74134 -0.0226,-2.37067 -0.0677,-4.7865 0,-0.18062 0,-0.38382 0.0226,-0.22578 0.0677,-0.47413 0.0903,-0.6096 0.74507,-0.56445 1.24178,0.0226 2.46098,0.0677 1.2192,0.0226 2.46098,-0.0226 0.56444,0 0.88053,0.22578 0.31609,0.2032 0.54187,0.67733 0.72249,1.80622 1.49013,3.56729 0.76765,1.73849 1.51272,3.49956 0.0677,0.22578 0.18062,0.4064 0.11289,0.15805 0.31609,0.33867 -0.0677,-0.65476 -0.11289,-1.28694 -0.0226,-0.63217 -0.0677,-1.28693 -0.0903,-1.2192 -0.15805,-2.46098 -0.0452,-1.24178 -0.13547,-2.50614 0,-0.13546 -0.0226,-0.27093 0,-0.13547 0.0451,-0.27093 0.0677,-0.27094 0.22578,-0.45156 0.15804,-0.2032 0.49671,-0.2032 1.28694,-0.0226 2.59645,-0.0452 1.30951,-0.0226 2.59645,-0.0226 0.51929,0 0.69991,0.22577 0.2032,0.2032 0.2032,0.76765 0,1.33209 -0.0452,2.6416 -0.0226,1.30951 -0.0226,2.66418 -0.0452,0.58703 0,1.15147 0.0452,0.56445 0.0452,1.15147 0.0226,4.04142 0,8.10543 0,0.45155 -0.0677,0.90311 -0.0452,0.42898 -0.0903,0.88053 -0.0677,0.38383 -0.24836,0.54187 -0.15804,0.13547 -0.58702,0.18062 -0.36125,0.0452 -0.72249,0.0452 -0.36125,-0.0226 -0.72249,-0.0226 h -4.06401 q -0.33866,0 -0.54186,-0.0226 -0.18063,-0.0226 -0.31609,-0.11288 -0.11289,-0.0903 -0.2032,-0.24836 -0.0903,-0.18062 -0.22578,-0.47413 -0.51929,-1.35467 -1.016,-2.66418 -0.49671,-1.33209 -0.99343,-2.68676 -0.0451,-0.13547 -0.13546,-0.27094 -0.0903,-0.13546 -0.2032,-0.31609 z m 20.27484,-0.31608 q -0.31609,0 -0.76765,0 -0.42898,-0.0226 -0.79022,-0.0226 -0.58702,0 -0.56445,-0.56445 0.0452,-0.92569 0.0452,-1.80622 0.0226,-0.90311 0.0677,-1.8288 0,-0.6096 0.58703,-0.54187 1.51271,0.0451 2.98027,0.0677 1.49013,0.0226 2.98026,0.0903 0.42898,0.0677 0.72249,0.27094 0.31609,0.2032 0.49672,0.49671 0.18062,0.29351 0.24835,0.65476 0.0903,0.36124 0.0677,0.69991 -0.11289,1.4224 -0.0903,2.82222 0.0452,1.37725 -0.27093,2.75449 -0.2032,0.8128 -0.76764,1.58045 -0.56445,0.76765 -1.33209,1.37725 -0.76765,0.58702 -1.69334,0.92569 -0.90311,0.31608 -1.78365,0.22577 -0.72249,-0.0451 -1.58044,-0.0226 -0.85796,0.0451 -1.60303,0 -1.12889,-0.0677 -2.16746,-0.56445 -1.03858,-0.51929 -1.85138,-1.28693 -0.81281,-0.79023 -1.33209,-1.73849 -0.49672,-0.97085 -0.54187,-1.96427 -0.0677,-1.39983 -0.11289,-2.79965 -0.0452,-1.4224 -0.0903,-2.79965 -0.0452,-1.89653 0.54186,-3.40925 0.60961,-1.53529 1.69334,-2.59644 1.08373,-1.08374 2.57387,-1.67076 1.49013,-0.6096 3.2512,-0.67733 1.06116,-0.0226 2.09974,0.15804 1.06115,0.18062 1.98684,0.69991 0.92569,0.49671 1.64818,1.35467 0.74507,0.83538 1.19663,2.12231 0.11289,0.31609 -0.0452,0.54187 -0.15804,0.2032 -0.49671,0.36125 -0.94827,0.45155 -1.87396,0.90311 -0.92569,0.45155 -1.87395,0.90311 -0.33867,0.18062 -0.51929,0.11289 -0.15805,-0.0677 -0.4064,-0.38382 -0.38383,-0.51929 -0.81281,-0.74507 -0.42897,-0.22578 -0.85795,-0.18062 -0.4064,0.0226 -0.76765,0.31609 -0.36124,0.27093 -0.6096,0.8128 -0.27093,0.6096 -0.42898,1.53529 -0.15804,0.92569 -0.18062,1.89653 -0.0226,0.97085 0.11289,1.87396 0.15805,0.90311 0.54187,1.44498 0.2032,0.31609 0.63218,0.45155 0.45155,0.13547 0.83537,0.0677 0.38383,-0.0677 0.60961,-0.29351 0.22577,-0.22578 0.31608,-0.49671 0.11289,-0.29352 0.0903,-0.58703 -0.0226,-0.29351 -0.11289,-0.54186 z m 12.55324,-4.80908 q 1.03858,0.11289 2.05458,0.13547 1.03858,0 2.05458,0.0226 0.56445,0.0226 0.74507,0.2032 0.18062,0.15804 0.22578,0.67733 0.0452,0.79023 0.0452,1.55787 0.0226,0.76765 0.0452,1.58045 0,0.67733 -0.65476,0.76764 -0.33866,0.0452 -0.65475,0.0677 -0.31609,0 -0.65476,0 -0.79022,0.0451 -1.55787,0.0226 -0.74506,-0.0226 -1.53529,-0.0226 v 0.58702 q 1.2192,0.0903 2.41583,0.0903 1.2192,-0.0226 2.4384,0 0.45156,0 0.90311,0.0226 0.45156,0.0226 0.88054,0.0677 0.56444,0.0677 0.83538,0.33867 0.27093,0.27093 0.27093,0.8128 0.0226,1.96427 0,3.92854 -0.0226,1.10631 -1.2192,1.10631 h -10.31806 q -0.74506,0 -1.10631,-0.33867 -0.36124,-0.33867 -0.47413,-1.06116 -0.0677,-0.65475 -0.13547,-1.30951 -0.0452,-0.65475 -0.0226,-1.33209 0.0452,-3.22862 0.0677,-6.43467 0.0451,-3.20605 0.0903,-6.45725 0,-0.11289 0,-0.22578 0,-0.13547 0.0452,-0.27093 0.0903,-0.97085 0.49671,-1.37725 0.42898,-0.4064 1.42241,-0.45156 1.46755,-0.0226 2.86738,0 1.4224,0 2.88995,-0.0226 0.63218,0 1.28694,-0.0226 0.67733,-0.0452 1.33209,-0.0452 0.45156,0 0.88053,0.0226 0.45156,0.0226 0.88054,0.0677 0.36124,0.0226 0.51929,0.22578 0.18062,0.2032 0.24835,0.45156 0.0677,0.18062 0.0677,0.4064 0.0226,0.22578 0.0452,0.42898 v 3.52213 q -0.0226,0.72249 -0.29351,1.016 -0.27093,0.29352 -1.016,0.29352 -2.77707,-0.0226 -5.5993,-0.13547 h -0.8128 z m 23.32287,9.79877 q -0.65476,1.17404 -1.67076,1.6256 -1.016,0.45156 -2.2352,0.51929 -1.49014,0.11289 -3.00285,0.0452 -1.51271,-0.0452 -3.048,0 -0.97085,0.0226 -1.73849,-0.4064 -0.74507,-0.42898 -1.28694,-1.10632 -0.54187,-0.69991 -0.85795,-1.53529 -0.29352,-0.83538 -0.36125,-1.64818 -0.22578,-2.09973 -0.22578,-4.15431 0,-2.07716 0.11289,-4.1769 0.0452,-1.28693 0.36125,-2.46098 0.33866,-1.17404 1.19662,-2.21262 0.42898,-0.54187 1.03858,-0.83538 0.6096,-0.29351 1.28693,-0.42898 0.67734,-0.15804 1.37725,-0.2032 0.69991,-0.0452 1.30951,-0.0903 0.90311,-0.0677 1.78365,-0.0452 0.88053,0 1.80622,0 0.99343,0 1.8288,0.31609 0.83538,0.31608 1.44498,0.90311 0.6096,0.56444 0.97085,1.39982 0.36124,0.8128 0.42898,1.80623 0.18062,2.55129 0.24835,4.94453 0.0677,2.37067 -0.11289,4.89939 -0.0451,0.79022 -0.18062,1.49013 -0.13547,0.69991 -0.47413,1.35467 z m -5.1929,-10.09228 q -0.0903,-0.79022 -0.54186,-1.08373 -0.42898,-0.29351 -0.94827,-0.18062 -0.49671,0.0903 -0.90311,0.54186 -0.4064,0.45156 -0.4064,1.12889 0.0226,1.03858 0.0226,2.07716 0,1.016 0.0226,2.09974 0,1.10631 0.42898,1.60302 0.45156,0.47413 0.97085,0.45156 0.51928,-0.0226 0.94826,-0.49672 0.45156,-0.49671 0.45156,-1.35466 0.0226,-1.15147 0,-2.39325 0,-1.24178 -0.0452,-2.39325 z m 13.77243,5.41867 q 0,1.46756 0,2.91254 0.0226,1.44498 0,2.86738 0,0.56445 -0.2032,0.72249 -0.18062,0.13547 -0.74507,0.15805 -0.99342,0.0452 -1.98684,0.0677 -0.99343,0 -2.032,0.0451 -0.47414,0.0226 -0.79023,-0.0226 -0.29351,-0.0452 -0.47413,-0.18063 -0.18062,-0.15804 -0.27093,-0.42897 -0.0677,-0.29352 -0.0677,-0.74507 -0.0452,-1.76107 -0.0903,-3.4544 -0.0226,-1.69334 -0.0452,-3.38667 -0.0452,-2.39325 -0.0903,-4.74134 -0.0226,-2.37067 -0.0677,-4.7865 0,-0.18062 0,-0.38382 0.0226,-0.22578 0.0677,-0.47413 0.0903,-0.6096 0.74507,-0.56445 1.24178,0.0226 2.46098,0.0677 1.2192,0.0226 2.46098,-0.0226 0.56445,0 0.88054,0.22578 0.31609,0.2032 0.54186,0.67733 0.72249,1.80622 1.49014,3.56729 0.76764,1.73849 1.51271,3.49956 0.0677,0.22578 0.18062,0.4064 0.11289,0.15805 0.31609,0.33867 -0.0677,-0.65476 -0.11289,-1.28694 -0.0226,-0.63217 -0.0677,-1.28693 -0.0903,-1.2192 -0.15804,-2.46098 -0.0452,-1.24178 -0.13547,-2.50614 0,-0.13546 -0.0226,-0.27093 0,-0.13547 0.0452,-0.27093 0.0677,-0.27094 0.22577,-0.45156 0.15805,-0.2032 0.49672,-0.2032 1.28693,-0.0226 2.59644,-0.0452 1.30952,-0.0226 2.59645,-0.0226 0.51929,0 0.69991,0.22577 0.2032,0.2032 0.2032,0.76765 0,1.33209 -0.0451,2.6416 -0.0226,1.30951 -0.0226,2.66418 -0.0452,0.58703 0,1.15147 0.0452,0.56445 0.0452,1.15147 0.0226,4.04142 0,8.10543 0,0.45155 -0.0677,0.90311 -0.0452,0.42898 -0.0903,0.88053 -0.0677,0.38383 -0.24836,0.54187 -0.15804,0.13547 -0.58702,0.18062 -0.36124,0.0452 -0.72249,0.0452 -0.36124,-0.0226 -0.72249,-0.0226 h -4.064 q -0.33867,0 -0.54187,-0.0226 -0.18062,-0.0226 -0.31609,-0.11288 -0.11289,-0.0903 -0.2032,-0.24836 -0.0903,-0.18062 -0.22578,-0.47413 -0.51929,-1.35467 -1.016,-2.66418 -0.49671,-1.33209 -0.99342,-2.68676 -0.0452,-0.13547 -0.13547,-0.27094 -0.0903,-0.13546 -0.2032,-0.31609 z"
     id="text7"
     style="font-weight:bold;font-size:22.5778px;font-family:Comicy;-inkscape-font-specification:'Comicy Bold';letter-spacing:0px;fill:#e2e8f0;stroke-width:1.5"
     aria-label="CLEAR THE DUNGEON" /><style
     type="text/css"
     id="style1-8">&#10;<![CDATA[
	.st0{fill:#000000;}
]]>&#10;</style><style
     type="text/css"
     id="style1-5">&#10;<![CDATA[
	.st0{fill:#000000;}
]]>&#10;</style><style
     type="text/css"
     id="style1-3">&#10;<![CDATA[
	.st0{fill:#000000;}
]]>&#10;</style><style
     type="text/css"
     id="style1-0">&#10;<![CDATA[
	.st0{fill:#000000;}
]]>&#10;</style><style
     type="text/css"
     id="style1-1">&#10;<![CDATA[
	.st0{fill:#000000;}
]]>&#10;</style><g
     style="fill:#e2e8f0"
     id="g9"
     transform="matrix(0.07812521,0,0,0.07812521,129.99991,11.131669)"><g
       id="g2"
       style="fill:#e2e8f0">&#10;	<g
   id="g1"
   style="fill:#e2e8f0">&#10;		<path
   d="M 497.916,1.279 C 489.105,-1.9 479.356,1.002 473.703,8.404 460.199,26.09 415.89,74.41 373.394,85.439 366.759,87.146 361.319,92.01 358.823,98.431 358.567,99.135 331.047,168.746 256.487,244.607 181.927,168.746 154.407,99.135 154.151,98.431 151.676,92.01 146.236,87.146 139.58,85.439 88.53,72.191 38.674,8.874 38.162,8.234 32.423,0.874 22.461,-1.942 13.842,1.386 5.095,4.671 -0.494,13.247 0.039,22.548 c 0.149,2.88 4.331,71.168 34.645,139.029 2.219,4.971 6.741,15.125 32.363,19.179 -3.093,13.653 -1.685,20.48 3.669,26.965 4.757,5.696 69.504,74.389 116.096,106.709 l -8.341,8.32 C 171.9,312.254 160.338,305.214 147.26,304.958 h -0.427 c -11.605,0 -21.099,9.28 -21.333,20.928 -0.192,10.411 7.104,19.221 16.939,21.269 1.984,8.512 5.44,16.64 10.005,24.299 0.021,0.043 0.021,0.085 0.064,0.128 0.043,0.107 0.107,0.171 0.171,0.256 L 48.914,475.583 c -8.32,8.341 -8.32,21.845 0,30.165 4.16,4.181 9.621,6.251 15.083,6.251 5.461,0 10.923,-2.069 15.083,-6.251 L 182.888,401.961 c 7.381,4.331 15.296,7.595 23.659,9.493 2.133,9.579 10.688,16.64 20.779,16.64 h 0.725 c 11.776,-0.384 21.013,-10.24 20.608,-22.016 -0.363,-11.477 -6.251,-21.461 -14.827,-28.16 15.061,-12.523 28.992,-22.976 40.747,-31.253 l 22.72,22.827 c -0.725,0.171 -1.387,0.576 -2.112,0.704 -17.301,3.051 -30.315,18.133 -30.869,35.883 -0.405,11.776 8.832,21.632 20.629,22.016 h 0.704 c 10.091,0 18.645,-7.061 20.779,-16.64 8.213,-1.856 16.021,-5.056 23.36,-9.323 l 103.06,103.574 c 4.181,4.203 9.643,6.293 15.147,6.293 5.44,0 10.859,-2.048 15.019,-6.187 8.384,-8.277 8.427,-21.803 0.128,-30.165 L 360.124,372.138 c 4.757,-7.829 8.363,-16.192 10.411,-24.981 9.835,-2.048 17.131,-10.859 16.939,-21.269 -0.213,-11.648 -9.728,-20.928 -21.333,-20.928 h -0.405 c -17.877,0.341 -33.152,13.205 -36.309,30.549 -0.277,1.493 -1.067,2.816 -1.493,4.267 L 311.785,323.563 C 358.078,297.75 436.99,214.038 442.26,207.744 c 5.397,-6.443 6.805,-13.269 3.669,-26.987 25.643,-4.053 30.165,-14.187 32.363,-19.157 30.4,-68.032 33.557,-136.491 33.685,-139.371 0.403,-9.302 -5.314,-17.793 -14.061,-20.95 z"
   id="path1-5"
   style="fill:#e2e8f0" />&#10;	</g>&#10;</g></g></svg>
