<?xml version="1.0" encoding="UTF-8" standalone="no"?>
<!-- Created with Inkscape (http://www.inkscape.org/) -->

<svg
   width="300mm"
   height="100mm"
   viewBox="0 0 300 100"
   version="1.1"
   id="svg1"
   inkscape:version="1.3 (0e150ed, 2023-07-21)"
   sodipodi:docname="gameLogoTemplate.svg"
   xml:space="preserve"
   xmlns:inkscape="http://www.inkscape.org/namespaces/inkscape"
   xmlns:sodipodi="http://sodipodi.sourceforge.net/DTD/sodipodi-0.dtd"
   xmlns="http://www.w3.org/2000/svg"
   xmlns:svg="http://www.w3.org/2000/svg"><sodipodi:namedview
     id="namedview1"
     pagecolor="#ffffff"
     bordercolor="#000000"
     borderopacity="0.25"
     inkscape:showpageshadow="2"
     inkscape:pageopacity="0.0"
     inkscape:pagecheckerboard="0"
     inkscape:deskcolor="#d1d1d1"
     inkscape:document-units="mm"
     inkscape:zoom="0.48343114"
     inkscape:cx="321.65905"
     inkscape:cy="1568.9928"
     inkscape:window-width="1920"
     inkscape:window-height="1027"
     inkscape:window-x="0"
     inkscape:window-y="25"
     inkscape:window-maximized="1"
     inkscape:current-layer="svg1" /><defs
     id="defs1" /><rect
     style="display:none;fill:#059669;stroke:#059669;stroke-width:0"
     id="rect1"
     width="300"
     height="100"
     x="1.1293076e-06"
     y="1.0988268e-05"
     inkscape:label="Background"
     inkscape:export-filename="gameLogos/theSandwichGuy.svg"
     inkscape:export-xdpi="96"
     inkscape:export-ydpi="96" /><style
     type="text/css"
     id="style1">&#10;<![CDATA[
	.st0{fill:#000000;}
]]>&#10;</style><text
     xml:space="preserve"
     style="font-style:normal;font-variant:normal;font-weight:bold;font-stretch:normal;font-size:22.5778px;font-family:'Arial Black';-inkscape-font-specification:'Arial Black,  Bold';letter-spacing:-0.79375px;fill:#e2e8f0;stroke:none;stroke-width:1.5;stroke-dasharray:none"
     x="13.822122"
     y="77.619606"
     id="text7"
     inkscape:export-filename="gameLogos/cardCapture.svg"
     inkscape:export-xdpi="96"
     inkscape:export-ydpi="96"><tspan
       sodipodi:role="line"
       id="tspan7"
       style="font-style:normal;font-variant:normal;font-weight:bold;font-stretch:normal;font-size:22.5778px;font-family:'Arial Black';-inkscape-font-specification:'Arial Black,  Bold';letter-spacing:-0.79375px;fill:#e2e8f0;stroke:none;stroke-width:1.5"
       x="13.822122"
       y="77.619606">MERCHANT SOLITAIRE</tspan></text><style
     type="text/css"
     id="style1-8">&#10;<![CDATA[
	.st0{fill:#000000;}
]]>&#10;</style><style
     type="text/css"
     id="style1-5">&#10;<![CDATA[
	.st0{fill:#000000;}
]]>&#10;</style><style
     type="text/css"
     id="style1-3">&#10;<![CDATA[
	.st0{fill:#000000;}
]]>&#10;</style><style
     type="text/css"
     id="style1-0">&#10;<![CDATA[
	.st0{fill:#000000;}
]]>&#10;</style><g
     style="fill:#e2e8f0"
     id="g9"
     transform="matrix(0.078125,0,0,0.078125,130,11.131699)"><g
       id="g2"
       style="fill:#e2e8f0">&#10;	<g
   id="g1"
   style="fill:#e2e8f0">&#10;		<path
   d="m 510.239,142.793 -21.31,-42.619 H 23.071 l -21.31,42.619 c -2.587,5.173 -2.304,11.326 0.728,16.25 3.044,4.913 8.425,7.913 14.207,7.913 h 478.609 c 5.782,0 11.163,-3 14.207,-7.913 3.032,-4.923 3.315,-11.075 0.727,-16.25 z"
   id="path1-8"
   style="fill:#e2e8f0" />&#10;	</g>&#10;</g><g
       id="g4"
       style="fill:#e2e8f0">&#10;	<g
   id="g3"
   style="fill:#e2e8f0">&#10;		<path
   d="M 450.783,0 H 61.217 C 45.87,0 33.391,12.478 33.391,27.826 V 66.782 H 478.608 V 27.826 C 478.609,12.478 466.13,0 450.783,0 Z"
   id="path2"
   style="fill:#e2e8f0" />&#10;	</g>&#10;</g><g
       id="g6"
       style="fill:#e2e8f0">&#10;	<g
   id="g5"
   style="fill:#e2e8f0">&#10;		<path
   d="m 0,200.348 v 16.696 c 0,33.75 27.468,61.217 61.217,61.217 18.347,0 34.848,-8.12 46.076,-20.956 12.186,12.902 29.436,20.956 48.533,20.956 19.923,0 37.837,-8.772 50.087,-22.653 12.25,13.881 30.164,22.653 50.087,22.653 19.923,0 37.837,-8.772 50.087,-22.653 12.25,13.881 30.163,22.653 50.087,22.653 19.098,0 36.348,-8.054 48.533,-20.956 11.227,12.837 27.728,20.956 46.076,20.956 33.75,0 61.217,-27.468 61.217,-61.217 v -16.696 z"
   id="path4"
   style="fill:#e2e8f0" />&#10;	</g>&#10;</g><g
       id="g8"
       style="fill:#e2e8f0">&#10;	<g
   id="g7"
   style="fill:#e2e8f0">&#10;		<path
   d="m 450.783,311.652 c -16.511,0 -32.543,-4.326 -46.62,-12.305 -14.609,7.978 -31.131,12.305 -47.989,12.305 -17.75,0 -35,-4.739 -50.087,-13.457 C 291,306.913 273.75,311.652 256,311.652 c -17.75,0 -35,-4.739 -50.087,-13.457 -15.087,8.717 -32.337,13.457 -50.087,13.457 -16.858,0 -33.38,-4.326 -47.989,-12.305 -14.077,7.978 -30.109,12.305 -46.62,12.305 -13.896,0 -27.06,-3.086 -38.957,-8.495 v 192.147 c 0,9.217 7.479,16.696 16.696,16.696 h 250.435 133.565 50.087 c 9.217,0 16.696,-7.479 16.696,-16.696 V 303.158 c -11.896,5.407 -25.06,8.494 -38.956,8.494 z M 256,428.522 c 0,9.217 -7.479,16.696 -16.696,16.696 H 105.739 c -9.217,0 -16.696,-7.479 -16.696,-16.696 v -66.783 c 0,-9.217 7.479,-16.696 16.696,-16.696 h 133.565 c 9.217,0 16.696,7.479 16.696,16.696 z m 166.957,50.087 H 322.783 v -116.87 c 0,-9.22 7.475,-16.696 16.696,-16.696 h 66.783 c 9.22,0 16.696,7.475 16.696,16.696 v 116.87 z"
   id="path6"
   style="fill:#e2e8f0" />&#10;	</g>&#10;</g></g></svg>
