<?xml version="1.0" encoding="UTF-8" standalone="no"?>
<!-- Created with Inkscape (http://www.inkscape.org/) -->

<svg
   width="246.9006mm"
   height="66.774544mm"
   viewBox="0 0 246.9006 66.774544"
   version="1.1"
   id="svg1"
   inkscape:version="1.3 (0e150ed, 2023-07-21)"
   sodipodi:docname="gameLogoTemplate.svg"
   xml:space="preserve"
   xmlns:inkscape="http://www.inkscape.org/namespaces/inkscape"
   xmlns:sodipodi="http://sodipodi.sourceforge.net/DTD/sodipodi-0.dtd"
   xmlns="http://www.w3.org/2000/svg"
   xmlns:svg="http://www.w3.org/2000/svg"><sodipodi:namedview
     id="namedview1"
     pagecolor="#ffffff"
     bordercolor="#000000"
     borderopacity="0.25"
     inkscape:showpageshadow="2"
     inkscape:pageopacity="0.0"
     inkscape:pagecheckerboard="0"
     inkscape:deskcolor="#d1d1d1"
     inkscape:document-units="mm"
     inkscape:zoom="0.48343114"
     inkscape:cx="321.65905"
     inkscape:cy="1568.9928"
     inkscape:window-width="1920"
     inkscape:window-height="1027"
     inkscape:window-x="0"
     inkscape:window-y="25"
     inkscape:window-maximized="1"
     inkscape:current-layer="svg1" /><defs
     id="defs1" /><style
     type="text/css"
     id="style1">&#10;<![CDATA[
	.st0{fill:#000000;}
]]>&#10;</style><path
     class="st0"
     d="m 149.90983,12.441716 c -2.52884,0 -4.57856,2.0496 -4.57856,4.57662 0,1.70674 0.94527,3.17672 2.32808,3.96474 -0.67819,2.32808 -2.00038,4.74708 -4.12575,5.95761 -4.25086,2.4133 -8.08673,-1.43773 -5.84583,-11.85071 2.19169,-0.34104 3.87576,-2.22018 3.87576,-4.50849 0,-2.5270204 -2.04959,-4.5766204 -4.57855,-4.5766204 -2.52896,0 -4.57662,2.0496 -4.57662,4.5766204 0,1.63291 0.86186,3.05742 2.14622,3.8663 -1.21999,6.00307 -3.08579,8.39928 -5.38356,8.08492 -3.43434,-0.46785 -3.95904,-5.11648 -3.97614,-13.7261004 1.66128,-0.68764 2.83193,-2.32055 2.83193,-4.22806 0,-2.52884 -2.0496,-4.578559990543 -4.57662,-4.578559990543 -2.52702,0 -4.57662,2.049599990543 -4.57662,4.578559990543 0,1.90945 1.17064,3.54236 2.83387,4.22806 -0.0189,8.6096204 -0.54556,13.2581304 -3.97809,13.7261004 -2.2997,0.31448 -4.16551,-2.08185 -5.38355,-8.08492 1.28436,-0.81082 2.14622,-2.23339 2.14622,-3.8663 0,-2.5270204 -2.0496,-4.5766204 -4.57856,-4.5766204 -2.52702,0 -4.57662,2.0496 -4.57662,4.5766204 0,2.28831 1.68408,4.16939 3.87576,4.50849 2.24091,10.41298 -1.59496,14.26401 -5.84582,11.85071 -2.12537,-1.21041 -3.447682,-3.62953 -4.125749,-5.95943 1.382809,-0.78608 2.326259,-2.25606 2.326259,-3.96292 0,-2.52702 -2.049601,-4.57662 -4.576621,-4.57662 -2.52702,0 -4.576496,2.04972 -4.576496,4.57662 0,2.30734 1.712443,4.194 3.928738,4.51224 l 3.186175,18.46941 h 23.921224 23.92122 l 3.18618,-18.46941 c 2.21629,-0.31824 3.92874,-2.2049 3.92874,-4.51224 0,-2.5269 -2.0496,-4.57662 -4.57662,-4.57662 z"
     id="path1-3"
     style="fill:#e2e8f0;stroke-width:0.121235" /><text
     xml:space="preserve"
     style="font-style:normal;font-variant:normal;font-weight:bold;font-stretch:normal;font-size:22.5778px;font-family:'Arial Black';-inkscape-font-specification:'Arial Black,  Bold';letter-spacing:-0.79375px;fill:#e2e8f0;stroke:none;stroke-width:1.5;stroke-dasharray:none"
     x="-1.7197928"
     y="66.487892"
     id="text7"><tspan
       sodipodi:role="line"
       id="tspan7"
       style="font-style:normal;font-variant:normal;font-weight:bold;font-stretch:normal;font-size:22.5778px;font-family:'Arial Black';-inkscape-font-specification:'Arial Black,  Bold';letter-spacing:-0.79375px;fill:#e2e8f0;stroke:none;stroke-width:1.5"
       x="-1.7197928"
       y="66.487892">REGICIDE SOLITAIRE</tspan></text><style
     type="text/css"
     id="style1-8">&#10;<![CDATA[
	.st0{fill:#000000;}
]]>&#10;</style><style
     type="text/css"
     id="style1-5">&#10;<![CDATA[
	.st0{fill:#000000;}
]]>&#10;</style></svg>
