<?xml version="1.0" encoding="UTF-8" standalone="no"?>
<!-- Created with Inkscape (http://www.inkscape.org/) -->

<svg
   width="300mm"
   height="100mm"
   viewBox="0 0 300 100"
   version="1.1"
   id="svg1"
   inkscape:version="1.3 (0e150ed, 2023-07-21)"
   sodipodi:docname="gameLogoTemplate.svg"
   xml:space="preserve"
   xmlns:inkscape="http://www.inkscape.org/namespaces/inkscape"
   xmlns:sodipodi="http://sodipodi.sourceforge.net/DTD/sodipodi-0.dtd"
   xmlns="http://www.w3.org/2000/svg"
   xmlns:svg="http://www.w3.org/2000/svg"><sodipodi:namedview
     id="namedview1"
     pagecolor="#ffffff"
     bordercolor="#000000"
     borderopacity="0.25"
     inkscape:showpageshadow="2"
     inkscape:pageopacity="0.0"
     inkscape:pagecheckerboard="0"
     inkscape:deskcolor="#d1d1d1"
     inkscape:document-units="mm"
     inkscape:zoom="0.48343114"
     inkscape:cx="321.65905"
     inkscape:cy="1568.9928"
     inkscape:window-width="1920"
     inkscape:window-height="1027"
     inkscape:window-x="0"
     inkscape:window-y="25"
     inkscape:window-maximized="1"
     inkscape:current-layer="svg1" /><defs
     id="defs1" /><rect
     style="display:none;fill:#059669;stroke:#059669;stroke-width:0"
     id="rect1"
     width="300"
     height="100"
     x="1.1293076e-06"
     y="1.0988268e-05"
     inkscape:label="Background"
     inkscape:export-filename="gameLogos/theSandwichGuy.svg"
     inkscape:export-xdpi="96"
     inkscape:export-ydpi="96" /><style
     type="text/css"
     id="style1">&#10;<![CDATA[
	.st0{fill:#000000;}
]]>&#10;</style><text
     xml:space="preserve"
     style="font-style:normal;font-variant:normal;font-weight:bold;font-stretch:normal;font-size:22.5778px;font-family:'Arial Black';-inkscape-font-specification:'Arial Black,  Bold';letter-spacing:-0.79375px;fill:#e2e8f0;stroke:none;stroke-width:1.5;stroke-dasharray:none"
     x="24.829901"
     y="77.619606"
     id="text7"
     inkscape:export-filename="gameLogos/merchantSolitaire.svg"
     inkscape:export-xdpi="96"
     inkscape:export-ydpi="96"><tspan
       sodipodi:role="line"
       id="tspan7"
       style="font-style:normal;font-variant:normal;font-weight:bold;font-stretch:normal;font-size:22.5778px;font-family:'Arial Black';-inkscape-font-specification:'Arial Black,  Bold';letter-spacing:-0.79375px;fill:#e2e8f0;stroke:none;stroke-width:1.5"
       x="24.829901"
       y="77.619606">REGICIDE SOLITAIRE</tspan></text><style
     type="text/css"
     id="style1-8">&#10;<![CDATA[
	.st0{fill:#000000;}
]]>&#10;</style><style
     type="text/css"
     id="style1-5">&#10;<![CDATA[
	.st0{fill:#000000;}
]]>&#10;</style><style
     type="text/css"
     id="style1-3">&#10;<![CDATA[
	.st0{fill:#000000;}
]]>&#10;</style><style
     type="text/css"
     id="style1-0">&#10;<![CDATA[
	.st0{fill:#000000;}
]]>&#10;</style><style
     type="text/css"
     id="style1-1">&#10;<![CDATA[
	.st0{fill:#000000;}
]]>&#10;</style><g
     id="g1"
     transform="matrix(0.1212349,0,0,0.1212349,118.96387,0.09556916)"
     style="fill:#e2e8f0">&#10;	<path
   class="st0"
   d="m 474.25,193.656 c -20.859,0 -37.766,16.906 -37.766,37.75 0,14.078 7.797,26.203 19.203,32.703 -5.594,19.203 -16.5,39.156 -34.031,49.141 -35.063,19.906 -66.703,-11.859 -48.219,-97.75 18.078,-2.813 31.969,-18.313 31.969,-37.188 0,-20.844 -16.906,-37.75 -37.766,-37.75 -20.86,0 -37.75,16.906 -37.75,37.75 0,13.469 7.109,25.219 17.703,31.891 -10.063,49.516 -25.453,69.281 -44.406,66.688 -28.328,-3.859 -32.656,-42.203 -32.797,-113.219 13.703,-5.672 23.359,-19.141 23.359,-34.875 0,-20.859 -16.906,-37.766 -37.75,-37.766 -20.844,0 -37.75,16.906 -37.75,37.766 0,15.75 9.656,29.219 23.375,34.875 -0.156,71.016 -4.5,109.359 -32.813,113.219 -18.969,2.594 -34.359,-17.172 -44.406,-66.688 10.594,-6.688 17.703,-18.422 17.703,-31.891 0,-20.844 -16.906,-37.75 -37.766,-37.75 -20.844,0 -37.75,16.906 -37.75,37.75 0,18.875 13.891,34.391 31.969,37.188 18.484,85.891 -13.156,117.656 -48.219,97.75 -17.531,-9.984 -28.438,-29.938 -34.031,-49.156 11.406,-6.484 19.188,-18.609 19.188,-32.688 0,-20.844 -16.906,-37.75 -37.75,-37.75 C 16.905,193.656 0,210.563 0,231.406 0,250.438 14.125,266 32.406,268.625 L 58.687,420.969 H 256 453.313 L 479.594,268.625 C 497.875,266 512,250.438 512,231.406 c 0,-20.843 -16.906,-37.75 -37.75,-37.75 z"
   id="path1-5"
   style="fill:#e2e8f0" />&#10;</g></svg>
