<svg xmlns="http://www.w3.org/2000/svg" xmlns:xlink="http://www.w3.org/1999/xlink" fill-rule="evenodd" stroke-miterlimit="10" viewBox="0 0 1286 287"><style>.B{fill:none}.C{stroke-linejoin:round}.D{fill:#2c3e50}.E{stroke:#2c3e50}.F{fill-rule:nonzero}</style><g class="F"><path fill="#34495e" stroke-width="8" d="M1221 218.4H64a23.8 23.8 0 0 1-23.8-23.8V119A23.8 23.8 0 0 1 64 95.2h1157a23.8 23.8 0 0 1 24 23.8v75.6a23.8 23.8 0 0 1-23.8 23.8z" class="E"/><path fill="#fff" d="M464.1 265.4c-2.5 0-5-.6-7.2-2l-103.4-59.6c-3.4-2-5.7-5-6.7-8.8a14.3 14.3 0 0 1 1.4-10.9l88.2-152.7a14.4 14.4 0 0 1 12.4-7.2c2.5 0 5 .7 7.2 2l103.5 59.7c6.8 4 9.2 12.8 5.2 19.6l-88.1 152.7a14.4 14.4 0 0 1-12.5 7.2"/><g class="D"><path d="M448.8 21.2a17.4 17.4 0 0 0-15 8.7l-88.2 152.7a17.3 17.3 0 0 0 6.4 23.8L455.4 266a17.4 17.4 0 0 0 23.8-6.4L567.3 107a17.4 17.4 0 0 0-6.3-23.7L457.5 23.6a17.4 17.4 0 0 0-8.7-2.4m0 6c2 0 4 .5 5.7 1.6L558 88.5a11.4 11.4 0 0 1 4 15.5l-88 152.7a11.4 11.4 0 0 1-15.6 4.2L355 201.2a11.4 11.4 0 0 1-4.2-15.6L439 33c2-3.6 5.9-5.7 9.8-5.7"/><path d="M562.1 104a11.4 11.4 0 0 0-4.1-15.5l-45.1-26L455 80.3a11.4 11.4 0 0 0-7.5 14.2l41.8 135.7L562 104z" opacity=".4"/></g><path fill="#fff" d="M532.2 283a14.3 14.3 0 0 1-13.7-10.1l-51.9-168.5a14.3 14.3 0 0 1 9.5-18l114.2-35.1a14.4 14.4 0 0 1 4.2-.7 14.3 14.3 0 0 1 13.8 10.2L660 229.3a14.3 14.3 0 0 1-9.5 18l-114.1 35.1a14.4 14.4 0 0 1-4.3.7"/><g class="D"><path d="M594.5 47.6a17.4 17.4 0 0 0-5 .8L475.2 83.5a17.3 17.3 0 0 0-11.5 21.7l51.8 168.6a17.3 17.3 0 0 0 21.7 11.5l114.2-35.1a18 18 0 0 0 10.3-8.5 17.3 17.3 0 0 0 1.2-13.3L611.1 60a17.3 17.3 0 0 0-16.6-12.3m0 6c5 0 9.4 3.2 11 8l51.8 168.6a11.4 11.4 0 0 1-7.6 14.2l-114.1 35.1a11.4 11.4 0 0 1-3.4.6c-4.8 0-9.3-3.2-10.8-8l-51.9-168.6a11.4 11.4 0 0 1 7.5-14.2L591.2 54a11.4 11.4 0 0 1 3.3-.5"/><path d="M605.4 61.7a11.4 11.4 0 0 0-14.2-7.6l-36.1 11.1-1.8 159.2a12.6 12.6 0 0 0 12.4 12.7l91 1a11.3 11.3 0 0 0 .6-8L605.4 61.8z" opacity=".4"/></g><path fill="#fff" d="M780.4 238c-8 0-14.4-6.5-14.4-14.4V47.2c0-7.9 6.5-14.4 14.4-14.4h119.4c8 0 14.4 6.5 14.4 14.4v176.4c0 7.9-6.4 14.3-14.4 14.3H780.4z"/><g class="D"><path d="M899.8 29.9H780.4A17.4 17.4 0 0 0 763 47.2v176.4a17.4 17.4 0 0 0 17.4 17.3h119.4a17.4 17.4 0 0 0 17.4-17.3V47.2a17.4 17.4 0 0 0-17.4-17.4m0 6a11.4 11.4 0 0 1 11.4 11.4v176.4a11.4 11.4 0 0 1-11.4 11.3H780.4a11.4 11.4 0 0 1-11.4-11.3V47.2a11.4 11.4 0 0 1 11.4-11.4h119.4"/><path d="m821.3 69.8-52.3-16v169.8a11.4 11.4 0 0 0 11.4 11.3h2L828.8 84a11.4 11.4 0 0 0-7.5-14.2" opacity=".4"/></g><path fill="#fff" d="M743.1 272.6c-1.4 0-2.9-.2-4.2-.6l-114.2-35.2a14.3 14.3 0 0 1-9.5-18L667 50.4a14.3 14.3 0 0 1 13.8-10.1 14.4 14.4 0 0 1 4.2.6L799.2 76a14.4 14.4 0 0 1 9.5 18l-51.9 168.5a14.3 14.3 0 0 1-13.7 10.1z"/><g class="D"><path d="M680.8 37.2c-7.7 0-14.4 5-16.6 12.3L612.3 218c-1.4 4.4-1 9.1 1.3 13.2a17.3 17.3 0 0 0 10.2 8.5L738 274.8a17.4 17.4 0 0 0 21.7-11.5l51.9-168.5A17.4 17.4 0 0 0 800 73.1L685.9 38a18 18 0 0 0-5.1-.8m0 6a11.4 11.4 0 0 1 3.3.5l114.2 35.1a11.4 11.4 0 0 1 7.5 14.2L754 261.6c-1.5 4.9-6 8-11 8a11.4 11.4 0 0 1-3.3-.5L625.6 234a11.4 11.4 0 0 1-7.6-14.2l52-168.6c1.4-4.9 6-8 10.8-8"/><path d="m714.8 221.6-132-1.5a12.6 12.6 0 0 1-12.5-12.7l2.2-195c0-7 5.8-12.5 12.7-12.4l132 1.5a12.6 12.6 0 0 1 12.5 12.7l-2.2 195c0 7-5.7 12.5-12.7 12.4"/></g><g fill="#231f20"><use xlink:href="#B"/><use xlink:href="#C"/><use xlink:href="#D"/><use xlink:href="#D" x="86.1"/><use xlink:href="#E"/><use xlink:href="#F"/><use xlink:href="#G"/><use xlink:href="#H"/><use xlink:href="#H" x="93.3"/><use xlink:href="#I"/><use xlink:href="#J"/><use xlink:href="#K"/></g></g><g stroke-width="24.8" class="B C E"><use xlink:href="#L"/><use xlink:href="#M"/><use xlink:href="#N"/><use xlink:href="#N" x="86.1"/><use xlink:href="#O"/><use xlink:href="#F" x="-1.6" y="4.6"/><use xlink:href="#P"/><use xlink:href="#Q"/><use xlink:href="#Q" x="93.3"/><use xlink:href="#R"/><use xlink:href="#S"/><use xlink:href="#T"/></g><g stroke="#e74c3c" stroke-width="12.4" class="B C"><use xlink:href="#L" y="-3.1"/><use xlink:href="#M" y="-3.1"/><use xlink:href="#N" y="-3.1"/><use xlink:href="#N" x="86.1" y="-3.1"/><use xlink:href="#O" y="-3.1"/><use xlink:href="#F" x="-1.6" y="1.6"/><use xlink:href="#P" y="-3.1"/><use xlink:href="#Q" y="-3.1"/><use xlink:href="#Q" x="93.3" y="-3.1"/><use xlink:href="#R" y="-3.1"/><use xlink:href="#S" y="-3.1"/><use xlink:href="#T" y="-3.1"/></g><g stroke-width="9.3" class="E B C"><path d="M117.3 119c1.2.4 3.2.5 4.5.5 6 0 9-1.7 9-6.2 0-3.7-3-6.4-9-6.4l-4.2.2-.3 12zm-37.8 59.8c-.7-10.2 0-86 1.6-101.7 11.7-1 27.6-1.4 38-1.4 30.5 0 48.2 11.6 48.2 36.5 0 14.2-5 22.6-15 27.9 10 13.1 19 28 18.5 28.5-2 2.5-26 12.7-32.2 12.3-.5 0-11.4-18.8-22.3-34.6h-.5c-.1 16.2-.4 28.5-.8 31.8-2 .6-35.5 2-35.5.7z"/><use xlink:href="#M" x="1.5" y="-4.6"/><use xlink:href="#N" x="1.5" y="-4.6"/><use xlink:href="#N" x="87.7" y="-4.6"/><use xlink:href="#O" x="1.6" y="-4.6"/><use xlink:href="#F"/><use xlink:href="#P" x="1.5" y="-4.7"/><use xlink:href="#Q" x="1.6" y="-4.6"/><use xlink:href="#Q" x="94.8" y="-4.6"/><use xlink:href="#R" x="1.6" y="-4.6"/><use xlink:href="#S" x="1.6" y="-4.6"/><use xlink:href="#T" x="1.5" y="-4.6"/></g><g class="F"><g fill="#e67e22"><use xlink:href="#B"/><use xlink:href="#C"/><use xlink:href="#D"/><use xlink:href="#D" x="86.1"/><use xlink:href="#E"/><use xlink:href="#F"/><use xlink:href="#G"/><use xlink:href="#H"/><use xlink:href="#H" x="93.3"/><use xlink:href="#I"/><use xlink:href="#J"/><use xlink:href="#K"/></g><g fill="#fff"><use xlink:href="#U"/><use xlink:href="#V"/><use xlink:href="#W"/><use xlink:href="#W" x="86.1"/><use xlink:href="#X"/><path d="M612.6 177.8a54 54 0 0 1-8.4-.4c-1.4-1.8-3.7-5.9-6.8-11.3-4-7.1-9.5-16.8-16.4-27.6-.3-.4-.6-.6-1-.7l-1-.1h-.2a1.5 1.5 0 0 0-1.5 1.5c0 8.3.2 16.1.5 22.4.2 6 .4 10.8.3 14.2a180 180 0 0 1-33.6 0 1558 1558 0 0 1 0-97 78 78 0 0 1 22.6-2.1c5.5 0 8.6.2 9.7.4a595 595 0 0 1 24 43.6c.4.5.9.8 1.5.8h.7a1.6 1.6 0 0 0 1.5-1.5l-.2-21.6c-.2-8.7-.3-16.3 0-20a195.6 195.6 0 0 1 33.5 0c1 9.5-.2 91.4-1.4 97a79.2 79.2 0 0 1-23.8 2.4"/><use xlink:href="#Y"/><use xlink:href="#Z"/><use xlink:href="#Z" x="93.3"/><use xlink:href="#a"/><use xlink:href="#b"/><use xlink:href="#c"/></g><g fill="#ecf0f1"><use xlink:href="#U" x="1.5" y="1.6"/><use xlink:href="#V" x="1.5" y="1.6"/><use xlink:href="#W" x="1.5" y="1.6"/><use xlink:href="#W" x="87.7" y="1.6"/><use xlink:href="#X" x="1.6" y="1.6"/><path d="M614.2 179.4c-4.9 0-7.6-.3-8.4-.5-1.4-1.8-3.7-5.8-6.8-11.3-4-7-9.5-16.8-16.5-27.5-.2-.4-.6-.7-1-.7l-.9-.2h-.2a1.5 1.5 0 0 0-1.6 1.6c0 8.2.3 16 .5 22.4.2 6 .4 10.8.3 14.1a180 180 0 0 1-33.5.1 1558 1558 0 0 1 0-97.1c1.6-1 10.5-2 22.6-2 5.4 0 8.6.1 9.6.3 3.2 5.1 14.3 24 24.1 43.6.3.5.8.9 1.4.9h.8a1.6 1.6 0 0 0 1.5-1.6l-.3-21.6c-.1-8.6-.3-16.2 0-19.9 3.2-.4 9.2-.6 16.6-.6 8 0 14.7.3 17 .6.9 9.5-.3 91.4-1.4 97a79.2 79.2 0 0 1-23.8 2.4"/><use xlink:href="#Y" x="1.6" y="1.6"/><use xlink:href="#Z" x="1.6" y="1.6"/><use xlink:href="#Z" x="94.8" y="1.6"/><use xlink:href="#a" x="1.6" y="1.6"/><use xlink:href="#b" x="1.5" y="1.6"/><use xlink:href="#c" x="1.6" y="1.5"/></g></g><defs><path id="B" d="M117.3 119c1.2.4 3.2.5 4.5.5 6 0 9-1.7 9-6.2 0-3.7-3-6.4-9-6.4l-4.2.2-.3 12zm-37.8 59.8c-.7-10.2 0-86 1.6-101.7 11.7-1 27.6-1.4 38-1.4 30.5 0 48.2 11.6 48.2 36.5 0 14.2-5 22.6-15 27.9 10 13.1 19 28 18.5 28.5-2 2.5-26 12.7-32.2 12.3-.5 0-11.4-18.8-22.3-34.6h-.5c-.1 16.2-.4 28.5-.8 31.8-2 .6-35.5 2-35.5.7"/><path id="C" d="M224.7 108c-8.8 0-14.9 6.7-14.9 20 0 11.8 6.3 19 14.3 19 9 0 14.4-6.3 14.4-19.6 0-15.3-6.7-19.4-13.8-19.4m53.5 21.9c0 26-17.7 51.3-53.2 51.3-32.2 0-53.6-20-53.6-55.3a50.2 50.2 0 0 1 53.1-51.4c32 0 53.7 21.1 53.7 55.4"/><path id="D" d="M279.3 77.6a831 831 0 0 1 82-1.6c2.7.3 2.1 31.3 1.1 31.4-2.3.5-11.4 1-22.9 1.5l-.4 68.5a220 220 0 0 1-36.6.7c-.6-4.2-.9-40-.6-69.5a134 134 0 0 1-21.7-.7c-1-6.9-1.6-29.2-.9-30.3"/><path id="E" d="M531.7 178.8c2 1-57 .8-75.6-.4-.7-9.3.4-79.7 1.6-101.7 18.8-1 75.5-1.2 75-.2 1 4 1.4 23.5 0 31-6.3.5-27.2.2-40.2-.2l.3 5.4c16.4-.2 27.9.4 28.7 1.4 1.6 1.8.3 25.8.3 26.7 0 1-12.5 1-29.1.6v6.3a484 484 0 0 1 39.3.1c1 7.4 1 27-.3 31"/><path id="F" d="M603 120c0-19.1-.9-37.8-.1-42.9 7.1-1.3 35-.8 36.2 0s-.1 97-1.3 99c-.7 3.3-32.2 4-34.5 2.6-3.2-3.8-11-19.7-23.6-39.3l-.9-.2c0 17 1.2 31.3.7 37.9-7.1 1.3-36.2 1.3-36.4-.1-.9-4.1-1.4-92.6 0-98.9.4-3.5 34.1-3.5 34.7-2.3 2.3 3.7 13.8 22.9 24.5 44.2h.7z"/><path id="G" d="M718.9 110c-2 7.3-5.7 24.2-5.7 24.5.7-.1 8.6 0 12.4.2-.3-1.3-3.8-17.8-6-24.8l-.7.2m9.7 52.7c0 .2-19-.6-20-.7a97 97 0 0 1-4.9 17.6c-1 .6-36.4-.9-39.2-2.9 2.5-9.5 28.4-99.2 29.7-100.1s44-1.8 47.5-1c.5.1 27.7 79.7 31.4 101a403 403 0 0 1-38.8 3.3c.3 1.9-5.1-14.4-5.7-17.2"/><path id="H" d="m818 121.9 3.6.1c4.7 0 8.3-1.6 8.3-6s-3.8-6.2-8.2-6.2l-3.5.1-.2 12zm-39 57c-.7-10.3-1.3-86 .3-101.8 11.7-1 29-1.4 39.4-1.4 30.6 0 46.6 15.1 46.6 37.7 0 28.9-13.5 40.2-46.3 40.4-.2 16-.2 23.6-1 24.3a196 196 0 0 1-39 .7"/><path id="I" d="M1037.7 178c-.4 1.1-64.3.4-72.1-.5-1-8.6-1.2-102.1.1-100.8.7-1 36.5-2 36.5-.7.5 6.8.5 57.7 0 69.3 12.3-.4 28.7-.4 35 .2a180 180 0 0 1 .5 32.5"/><path id="J" d="M1120.6 178.8c2 1-57 .8-75.6-.4-.7-9.3.4-79.7 1.6-101.7 18.8-1 75.5-1.2 75-.2 1 4 1.4 23.5 0 31-6.4.5-27.2.2-40.2-.2l.3 5.4c16.3-.2 27.9.4 28.7 1.4 1.6 1.8.3 25.8.3 26.7 0 1-12.5 1-29.1.6v6.3c13-.5 33.4-.5 39.3.1.9 7.4.9 27-.3 31"/><path id="K" d="M1127.2 171c-.9-3 8-30.5 9.7-29.5a68.7 68.7 0 0 0 27.4 8.2c4.7 0 6.2-.9 6.2-2.5 0-1.1-.5-3.3-12.4-5.7-18.5-3.6-30.5-10.7-30.5-31.9 0-19.7 16.2-34.8 44.3-34.8 14.2 0 29.5 3.5 35.1 7.7 2.4 1.8-9 29.2-10.7 28.6-2.7-.9-12.6-5.1-24-5.1-6 0-8 1-8 2.5 0 2 2.2 2.6 13.2 4.8 15.7 3 32.6 8.6 32.6 32.2 0 13.5-10.6 33.6-44.4 33.6a94.2 94.2 0 0 1-38.5-8.1"/><path id="L" d="M115.7 123.7c1.2.3 3.2.5 4.6.5 6 0 9-1.8 9-6.3 0-3.6-3-6.4-9-6.4-1.5 0-3.4.1-4.3.3l-.3 12zM78 183.5c-.7-10.2 0-86 1.6-101.7 11.7-1 27.5-1.5 38-1.5 30.5 0 48.1 11.7 48.1 36.6 0 14.1-5 22.6-15 27.8 10 13.1 19 28 18.5 28.6-2 2.5-26 12.7-32.2 12.2-.4 0-11.4-18.8-22.3-34.5h-.4c-.2 16.2-.5 28.4-.9 31.8-1.9.5-35.4 2-35.4.7z"/><path id="M" d="M223.1 112.7c-8.7 0-14.8 6.7-14.8 20 0 11.7 6.2 19 14.3 19 9 0 14.4-6.4 14.4-19.7 0-15.3-6.7-19.3-13.9-19.3zm53.5 21.8c0 26-17.6 51.3-53.2 51.3-32.2 0-53.6-20-53.6-55.2A50.2 50.2 0 0 1 223 79c32 0 53.6 21.2 53.6 55.4z"/><path id="N" d="M277.8 82.2a831 831 0 0 1 81.9-1.6c2.8.3 2.2 31.3 1.2 31.5-2.4.4-11.4 1-23 1.4l-.4 68.5a220 220 0 0 1-36.5.8c-.6-4.3-1-40-.6-69.6a134 134 0 0 1-21.7-.7c-1-6.8-1.6-29.1-1-30.3z"/><path id="O" d="M530.2 183.5c1.9 1-57 .7-75.6-.4-.8-9.4.4-79.8 1.6-101.8 18.8-1 75.5-1.1 75-.1.9 4 1.3 23.4 0 30.9-6.4.6-27.2.3-40.2-.2l.3 5.4c16.3-.1 27.8.5 28.7 1.5 1.6 1.7.3 25.8.3 26.7 0 1-12.5 1-29.2.5v6.3a484 484 0 0 1 39.4.1c.9 7.5.9 27-.3 31z"/><path id="P" d="M717.3 114.7c-2 7.3-5.7 24.2-5.7 24.5.8-.2 8.6 0 12.4.1-.3-1.3-3.8-17.7-6-24.7l-.7.1zm9.8 52.8c0 .1-19-.6-20.1-.8a97 97 0 0 1-4.8 17.7c-1 .5-36.5-1-39.2-3 2.4-9.4 28.4-99.2 29.7-100s44-1.8 47.5-1c.4 0 27.7 79.6 31.3 101a436 436 0 0 1-38.7 3.3 178 178 0 0 1-5.7-17.2z"/><path id="Q" d="M816.4 126.5c.9.2 2.6.2 3.6.2 4.7 0 8.4-1.7 8.4-6s-3.8-6.3-8.2-6.3c-.4 0-3 0-3.5.2l-.3 12zm-39 57c-.6-10.2-1.2-86 .4-101.7 11.6-1 29-1.5 39.3-1.5 30.6 0 46.7 15.2 46.7 37.8 0 28.8-13.6 40.2-46.4 40.3-.1 16-.1 23.6-1 24.4-.4 1.3-38.8 2-39 .7z"/><path id="R" d="M1036.2 182.6c-.5 1.2-64.3.5-72.2-.4-1-8.6-1.1-102.2.2-100.9.7-1 36.4-2 36.4-.7.6 6.8.6 57.7 0 69.4 12.4-.5 28.7-.5 35 .1a181 181 0 0 1 .6 32.5z"/><path id="S" d="M1119 183.5c2 1-56.9.7-75.6-.4-.7-9.4.5-79.8 1.7-101.8a915 915 0 0 1 75-.1c.9 4 1.3 23.4 0 30.9-6.4.6-27.2.3-40.2-.2l.3 5.4c16.3-.1 27.8.5 28.7 1.5 1.6 1.7.3 25.8.3 26.7 0 1-12.6 1-29.2.5v6.3c13.1-.4 33.4-.4 39.4.1.9 7.5.9 27-.3 31z"/><path id="T" d="M1125.6 175.6c-.8-2.9 8-30.4 9.8-29.4a68.7 68.7 0 0 0 27.4 8.1c4.7 0 6.1-.8 6.1-2.4 0-1.2-.4-3.4-12.4-5.7-18.5-3.7-30.4-10.8-30.4-32 0-19.6 16.2-34.8 44.3-34.8 14.1 0 29.4 3.5 35.1 7.8 2.3 1.7-9 29.1-10.8 28.5-2.6-.9-12.5-5-24-5-6 0-7.9 1-7.9 2.4 0 2 2.2 2.6 13.1 4.8 15.8 3 32.7 8.6 32.7 32.2 0 13.6-10.7 33.7-44.5 33.7a94.2 94.2 0 0 1-38.5-8.2z"/><path id="U" d="M121.8 105.3c-1.4 0-3.4.1-4.5.3a1.6 1.6 0 0 0-1.3 1.5l-.3 12a1.6 1.6 0 0 0 1.2 1.5c1.3.3 3.4.5 4.9.5 2.6 0 10.6 0 10.6-7.8 0-3.7-2.8-8-10.6-8m17.5 74-3.9-6.1c-4.1-6.7-11-18-17.9-27.7a1.6 1.6 0 0 0-1.2-.7h-.5a1.6 1.6 0 0 0-1.5 1.5l-.8 30.5a398.8 398.8 0 0 1-32.5.9c-.6-13 .1-81.7 1.6-99.1a467 467 0 0 1 36.6-1.4c30.9 0 46.5 11.8 46.5 35 0 13.2-4.3 21.4-14.2 26.5-.4.2-.6.6-.7 1a1.6 1.6 0 0 0 .2 1.3 224 224 0 0 1 18 27.2 107.8 107.8 0 0 1-29.7 11.1"/><path id="V" d="M224.7 106.5c-10.3 0-16.4 8-16.4 21.5 0 12.1 6.5 20.6 15.8 20.6 6 0 16-2.7 16-21.2 0-17.3-8.4-21-15.4-21m.3 73.2a52 52 0 0 1-37.8-14 54.7 54.7 0 0 1-14.3-39.7c0-24 16.2-49.9 51.6-49.9 31.7 0 52.1 21.2 52.1 53.9 0 24-16.1 49.7-51.6 49.7"/><path id="W" d="m311.4 177-7.5-.1c-.5-7.2-.7-40.4-.4-68.3a1.5 1.5 0 0 0-.5-1.1 1.6 1.6 0 0 0-1-.4h-5.7c-6.9 0-11.6-.2-14.7-.6-.9-7.2-1.2-23.8-1-27.7 6.3-.8 43.6-1.8 65.7-1.8 10.7 0 13.5.2 14.2.4a121 121 0 0 1 .7 28.6c-3.3.5-11.7 1-21.7 1.3a1.6 1.6 0 0 0-1.5 1.6v24.8l-.2 42.4c-3.2.4-16.3 1-26.4 1"/><path id="X" d="M509.6 178c-17 0-40.5-.4-52-1-.5-12.8.5-76 1.6-98.8a1223.1 1223.1 0 0 1 72.2-.4c.7 5 1 20.7 0 28.2l-11.8.2c-8 0-18.5-.2-27-.5a1.6 1.6 0 0 0-1.2.5c-.3.3-.4.7-.4 1.2l.3 5.4a1.6 1.6 0 0 0 1.5 1.4h4.9c15 0 21.2.7 22.7 1 .3 1.3.7 6 0 24.1v.5c-1.2.1-3.8.3-10.4.3-4.5 0-10.3 0-17.3-.3a1.6 1.6 0 0 0-1.1.5c-.3.3-.5.7-.5 1v6.4a1.6 1.6 0 0 0 1.6 1.5 654.8 654.8 0 0 1 38 0c.6 7.5.6 23.4-.3 28.4-2.2.2-8.5.3-20.8.3"/><path id="Y" d="m715.4 136 10.1.2a1.6 1.6 0 0 0 1.2-.5c.4-.4.5-.9.4-1.3l-.2-.8a335 335 0 0 0-5.8-24.2 1.6 1.6 0 0 0-1.5-1l-.9.1c-.6 0-1.2.5-1.3 1.1-1.8 6.3-5.8 24-5.8 25 0 .4.2.8.6 1.1a1.6 1.6 0 0 0 1 .4h2.2m19.8 42.3a245 245 0 0 1-5-16 1.6 1.6 0 0 0-1.6-1.1 1.4 1.4 0 0 0-.1 0h-.3a672 672 0 0 1-19.7-.8c-.4 0-.7.2-1 .4a1.6 1.6 0 0 0-.5 1.2c-.2 1.4-3 13.4-4.2 16.2h-1.7a271 271 0 0 1-34.7-2.4c4-15.2 26-90.5 28.9-97.9a554 554 0 0 1 45.4-.9c3 8 26.4 76.9 30.6 98.4-6.6 1.3-30.8 2.7-36 3"/><path id="Z" d="m821.7 108.2-3.8.2a1.6 1.6 0 0 0-1.2 1.5l-.3 12c0 .7.5 1.4 1.3 1.5l3.9.2c6.3 0 9.9-2.8 9.9-7.6 0-4.7-3.9-7.8-9.8-7.8M791.1 178c-6.1 0-9.2-.2-10.6-.3-.6-12.3-1.2-81.4.3-99.1 10.9-1 27-1.4 37.9-1.4 28.2 0 45 13.5 45 36.2 0 27.8-12.5 38.7-44.7 38.8a1.6 1.6 0 0 0-1.6 1.6v3.3a180 180 0 0 1-.6 19.8c-2.5.5-14.1 1-25.7 1"/><path id="a" d="M1017.1 177c-17.7 0-42.8-.4-50.1-.9-1-13.3-1-89.3 0-98.2a273.3 273.3 0 0 1 33.7-.8c.5 9.8.5 57.2 0 68.1a1.6 1.6 0 0 0 1.5 1.7 536.3 536.3 0 0 1 33.5 0c.9 8.2 1.4 24.8.7 29.8-1.5.1-6 .3-19.3.3"/><path id="b" d="M1098.5 178c-17 0-40.5-.4-52-1-.5-12.8.5-76 1.6-98.8a1223 1223 0 0 1 72.2-.4c.7 5 1 20.7 0 28.2l-11.8.2c-8 0-18.5-.2-27-.5-.5 0-.9.2-1.2.5a1.6 1.6 0 0 0-.4 1.2l.3 5.4a1.6 1.6 0 0 0 1.5 1.4h4.9c15 0 21.2.7 22.7 1 .3 1.3.7 6 0 24.1v.5c-1.2.1-3.8.3-10.4.3-4.5 0-10.3 0-17.3-.3a1.6 1.6 0 0 0-1.6 1.6v6.3a1.6 1.6 0 0 0 1.6 1.5 654.7 654.7 0 0 1 38 0c.6 7.5.6 23.4-.3 28.4-2.2.2-8.5.3-20.8.3"/><path id="c" d="M1165.7 177.6a95.3 95.3 0 0 1-37-7.6 121 121 0 0 1 8.5-26.6 70 70 0 0 0 27.2 7.9c2.2 0 7.6 0 7.6-4 0-2.8-2.3-5-13.6-7.3-17.5-3.4-29.2-10-29.2-30.4 0-19.9 17.2-33.3 42.7-33.3 13.2 0 28.2 3.3 34 7.2a92 92 0 0 1-9.9 25.8l-.5-.1c-3.9-1.5-13-4.8-23.3-4.8-2.8 0-9.4 0-9.4 4 0 3.5 3.3 4.2 14.4 6.4 15.2 3 31.4 8 31.4 30.7 0 12-9 32-43 32"/></defs></svg>