<?xml version="1.0" encoding="UTF-8" standalone="no"?>
<!-- Created with Inkscape (http://www.inkscape.org/) -->

<svg
   width="149.0267mm"
   height="66.774544mm"
   viewBox="0 0 149.0267 66.774544"
   version="1.1"
   id="svg1"
   inkscape:version="1.3 (0e150ed, 2023-07-21)"
   sodipodi:docname="gameLogoTemplate.svg"
   xml:space="preserve"
   xmlns:inkscape="http://www.inkscape.org/namespaces/inkscape"
   xmlns:sodipodi="http://sodipodi.sourceforge.net/DTD/sodipodi-0.dtd"
   xmlns="http://www.w3.org/2000/svg"
   xmlns:svg="http://www.w3.org/2000/svg"><sodipodi:namedview
     id="namedview1"
     pagecolor="#ffffff"
     bordercolor="#000000"
     borderopacity="0.25"
     inkscape:showpageshadow="2"
     inkscape:pageopacity="0.0"
     inkscape:pagecheckerboard="0"
     inkscape:deskcolor="#d1d1d1"
     inkscape:document-units="mm"
     inkscape:zoom="0.48343114"
     inkscape:cx="321.65905"
     inkscape:cy="1568.9928"
     inkscape:window-width="1920"
     inkscape:window-height="1027"
     inkscape:window-x="0"
     inkscape:window-y="25"
     inkscape:window-maximized="1"
     inkscape:current-layer="svg1" /><defs
     id="defs1" /><style
     type="text/css"
     id="style1">&#10;<![CDATA[
	.st0{fill:#000000;}
]]>&#10;</style><text
     xml:space="preserve"
     style="font-style:normal;font-variant:normal;font-weight:bold;font-stretch:normal;font-size:22.5778px;font-family:'Arial Black';-inkscape-font-specification:'Arial Black,  Bold';letter-spacing:-0.79375px;fill:#e2e8f0;stroke:none;stroke-width:1.5;stroke-dasharray:none"
     x="-0.78272498"
     y="66.487892"
     id="text7"><tspan
       sodipodi:role="line"
       id="tspan7"
       style="font-style:normal;font-variant:normal;font-weight:bold;font-stretch:normal;font-size:22.5778px;font-family:'Arial Black';-inkscape-font-specification:'Arial Black,  Bold';letter-spacing:-0.79375px;fill:#e2e8f0;stroke:none;stroke-width:1.5"
       x="-0.78272498"
       y="66.487892">SCOUNDREL</tspan></text><style
     type="text/css"
     id="style1-8">&#10;<![CDATA[
	.st0{fill:#000000;}
]]>&#10;</style><style
     type="text/css"
     id="style1-5">&#10;<![CDATA[
	.st0{fill:#000000;}
]]>&#10;</style><g
     id="g6"
     transform="matrix(1.0441411,0,0,1.0441411,54.513156,-1.4390543e-5)"
     style="fill:#e2e8f0">&#10;	<g
   id="g5"
   style="fill:#e2e8f0">&#10;		<path
   style="fill:#e2e8f0"
   d="m 22.539,24.107 c -1.712,0.163 -3.564,-1.934 -5.5,-1.934 -2.071,0 -4.048,2.083 -5.859,1.897 -4.958,-0.507 -8.674,-1.639 -9.671,-3.014 0.284,2.044 0.798,3.977 1.487,5.768 0.177,0.178 0.353,0.353 0.537,0.536 0.514,0.569 1.192,1.023 1.805,1.58 0.689,0.466 1.367,0.994 2.14,1.4 0.736,0.469 1.559,0.801 2.359,1.174 0.833,0.292 1.653,0.632 2.507,0.812 0.837,0.248 1.69,0.347 2.509,0.496 0.828,0.031 1.63,0.18 2.395,0.135 0.383,-0.004 0.756,-0.006 1.117,-0.01 0.359,-0.037 0.706,-0.076 1.039,-0.111 0.671,-0.053 1.273,-0.176 1.814,-0.278 0.271,-0.05 0.523,-0.099 0.758,-0.142 0.229,-0.066 0.438,-0.127 0.628,-0.183 0.767,-0.212 1.206,-0.333 1.206,-0.333 0,0 -0.415,0.188 -1.143,0.518 -0.184,0.08 -0.388,0.168 -0.609,0.264 -0.23,0.072 -0.479,0.152 -0.745,0.236 -0.532,0.175 -1.136,0.38 -1.821,0.475 -0.341,0.062 -0.695,0.128 -1.062,0.195 -0.373,0.031 -0.758,0.063 -1.154,0.098 -0.794,0.105 -1.636,0.028 -2.508,0.014 -0.86,-0.129 -1.769,-0.177 -2.652,-0.436 C 11.214,33.084 10.344,32.743 9.462,32.44 8.621,32.038 7.76,31.674 6.99,31.17 6.179,30.736 5.495,30.137 4.791,29.625 4.469,29.322 4.143,29.033 3.834,28.742 c 2.821,5.754 7.673,9.567 13.206,9.567 7.74,0 14.169,-7.438 15.53,-17.253 -1.022,1.41 -4.895,2.562 -10.031,3.051 z"
   id="path1-6" />&#10;		<path
   style="fill:#e2e8f0"
   d="m 22.396,21.582 c 1.971,-0.377 1.928,-0.82 1.911,-0.989 -0.048,-0.451 -0.689,-0.451 -0.997,-0.451 -0.325,0 -0.712,0.031 -1.12,0.089 -0.353,0.051 -1.528,0.245 -1.835,0.665 -0.076,0.106 -0.107,0.229 -0.088,0.349 0.076,0.461 0.73,0.461 0.977,0.461 0.328,0.001 0.738,-0.044 1.152,-0.124 z"
   id="path2" />&#10;		<path
   style="fill:#e2e8f0"
   d="m 12.126,21.72 c 0.219,0 0.883,0 0.962,-0.461 0.021,-0.119 -0.01,-0.244 -0.086,-0.351 -0.296,-0.414 -1.387,-0.615 -1.714,-0.666 -0.376,-0.06 -0.735,-0.091 -1.039,-0.091 -0.274,0 -0.918,0 -0.979,0.453 -0.057,0.425 0.547,0.761 1.792,1.002 0.384,0.075 0.752,0.114 1.064,0.114 z"
   id="path3" />&#10;		<path
   style="fill:#e2e8f0"
   d="m 37.067,6.538 c 0,0 -0.106,-0.238 -0.369,-0.596 C 36.568,5.76 36.397,5.552 36.185,5.322 35.977,5.081 35.714,4.856 35.401,4.668 35.091,4.466 34.74,4.265 34.356,4.076 33.974,3.878 33.539,3.807 33.089,3.712 32.948,3.691 32.804,3.68 32.659,3.666 32.981,3.542 33.294,3.421 33.581,3.28 33.89,3.148 34.179,3.016 34.438,2.885 34.697,2.742 34.93,2.647 35.124,2.535 35.513,2.326 35.745,2.156 35.745,2.156 L 35.753,2.151 C 35.768,2.14 35.781,2.126 35.792,2.109 35.843,2.033 35.822,1.93 35.745,1.88 c 0,0 -0.231,-0.154 -0.658,-0.335 C 34.874,1.456 34.611,1.344 34.307,1.275 34.003,1.206 33.653,1.128 33.271,1.083 32.89,1.057 32.472,1.039 32.034,1.069 c -0.435,0.048 -0.899,0.1 -1.354,0.257 -0.456,0.153 -0.909,0.366 -1.342,0.64 -0.443,0.243 -0.861,0.561 -1.291,0.828 -0.078,0.058 -0.155,0.116 -0.233,0.173 0.375,0.337 0.733,0.695 1.081,1.069 0.174,0.192 0.345,0.388 0.514,0.588 0.383,0.452 0.74,0.928 1.078,1.423 0.336,0.062 0.672,0.131 0.994,0.206 0.391,0.07 0.752,0.218 1.111,0.294 0.356,0.077 0.726,0.069 1.059,0.117 0.332,0.051 0.659,0.076 0.975,0.082 0.157,0.007 0.314,10e-4 0.465,-0.004 0.145,0.009 0.272,0.04 0.408,0.041 0.262,0.018 0.506,0.027 0.717,0.023 0.42,-0.002 0.703,-0.036 0.703,-0.036 l 0.02,-0.002 C 36.955,6.766 36.97,6.762 36.986,6.755 37.067,6.718 37.104,6.621 37.067,6.538 Z"
   id="path4" />&#10;		<path
   style="fill:#e2e8f0"
   d="M 29.38,7.575 C 28.644,7.106 27.82,6.774 27.021,6.401 26.188,6.109 25.368,5.769 24.513,5.59 23.677,5.342 22.824,5.243 22.005,5.093 21.177,5.062 20.374,4.914 19.609,4.959 c -0.383,0.003 -0.756,0.006 -1.117,0.009 -0.358,0.038 -0.706,0.076 -1.039,0.111 -0.671,0.053 -1.274,0.177 -1.814,0.279 -0.271,0.05 -0.524,0.098 -0.758,0.141 -0.228,0.067 -0.438,0.128 -0.628,0.183 -0.767,0.212 -1.206,0.333 -1.206,0.333 0,0 0.415,-0.188 1.142,-0.517 0.184,-0.079 0.388,-0.167 0.61,-0.263 0.23,-0.073 0.479,-0.153 0.745,-0.237 0.532,-0.174 1.135,-0.379 1.821,-0.474 0.341,-0.063 0.696,-0.128 1.063,-0.195 0.373,-0.032 0.758,-0.064 1.154,-0.098 0.793,-0.105 1.635,-0.028 2.508,-0.013 0.859,0.128 1.769,0.176 2.651,0.435 0.902,0.18 1.772,0.522 2.654,0.824 0.555,0.266 1.108,0.53 1.649,0.813 C 28.857,6.042 28.682,5.783 28.482,5.547 28.313,5.347 28.143,5.151 27.966,4.961 27.62,4.587 27.261,4.23 26.884,3.892 24.182,1.462 20.763,0 17.035,0 8.305,0 1.228,7.969 1.228,17.8 c 0,0.751 0.055,1.486 0.135,2.213 0.973,-1.683 7.612,-2.985 15.675,-2.985 8.063,0 14.703,1.302 15.672,2.983 0.08,-0.727 0.135,-1.462 0.135,-2.213 0,-3.564 -0.941,-6.875 -2.545,-9.656 C 30.004,7.943 29.705,7.745 29.38,7.575 Z"
   id="path5" />&#10;	</g>&#10;</g></svg>
