<?xml version="1.0" encoding="UTF-8" standalone="no"?>
<!-- Created with Inkscape (http://www.inkscape.org/) -->

<svg
   width="300mm"
   height="300mm"
   viewBox="0 0 300 300"
   version="1.1"
   id="svg1"
   xml:space="preserve"
   xmlns="http://www.w3.org/2000/svg"
   xmlns:svg="http://www.w3.org/2000/svg"><defs
     id="defs1" /><g
     id="g17"
     transform="translate(534.12497,-1253.5514)"><rect
       style="fill:#059669;stroke:#059669;stroke-width:1.73651;stroke-dasharray:none"
       id="rect15"
       width="298.26349"
       height="298.26349"
       x="-533.25671"
       y="1254.4197"
       rx="3.3430033"
       ry="4.9452558" /><g
       id="g11"
       transform="translate(24.063102,1.0401893)"><g
         id="g10"
         transform="rotate(-19.772317,-493.80249,1453.618)"><g
           id="g9"
           transform="matrix(1.4007783,0,0,1.4007783,-498.42763,807.06758)"
           style="display:inline"><rect
             style="fill:#ffffff;stroke:#c3c3c3;stroke-width:1;stroke-dasharray:none;stroke-opacity:1"
             id="rect1"
             width="84.666664"
             height="116.41666"
             x="23.284767"
             y="387.27368"
             rx="5.2916665"
             ry="5.1971726" /><g
             id="g6"
             transform="translate(-0.04739859,-4.4716301)"><path
               d="m 63.660285,423.92228 a 4153.9384,3730.3636 0 0 0 -14.65869,12.04358 c -1.86398,1.60438 -3.60885,3.2355 -5.28226,4.92812 a 19.437739,17.455682 0 0 0 -0.93497,22.04688 l 0.41687,0.4733 c 3.01333,3.22215 7.62562,4.69282 12.07415,4.20884 l 0.73249,-0.099 -2.10218,5.66347 a 2.977595,2.673971 0 0 0 2.82572,3.51894 h 17.86558 l 0.35136,-0.0188 a 2.977595,2.673971 0 0 0 2.4714,-3.5029 l -2.04858,-5.52174 0.30966,0.0535 c 4.7314,0.6685 9.71292,-1.0348 12.86321,-4.77304 a 19.434762,17.45301 0 0 0 -0.92603,-22.04155 94.648805,84.997516 0 0 0 -5.24057,-4.89336 l -14.70336,-12.08101 a 2.977595,2.673971 0 0 0 -4.0138,-0.003 z"
               stroke-width="0"
               fill="currentColor"
               id="path1"
               style="fill:#d97706;stroke:#d97706;stroke-width:4.70278;stroke-linecap:round;stroke-linejoin:round" /></g><g
             id="g8"
             transform="translate(-0.88797699,5.6259135)"
             style="fill:#000000"><path
               d="m 54.154814,387.77753 a 1132.8923,1017.3719 0 0 0 -3.997825,3.28461 c -0.508358,0.43756 -0.984231,0.88241 -1.440616,1.34403 a 5.3012016,4.7606406 0 0 0 -0.254992,6.01279 l 0.113692,0.12908 c 0.821817,0.87877 2.079715,1.27986 3.29295,1.14786 l 0.19977,-0.027 -0.573322,1.54459 a 0.81207137,0.72926483 0 0 0 0.770651,0.95971 h 4.872431 l 0.09583,-0.005 a 0.81207137,0.72926483 0 0 0 0.674018,-0.95534 l -0.558704,-1.50593 0.08445,0.0146 c 1.290382,0.18231 2.648978,-0.28222 3.508148,-1.30174 a 5.3003897,4.7599119 0 0 0 -0.252554,-6.01133 25.813311,23.181141 0 0 0 -1.429246,-1.33456 l -4.010007,-3.29482 a 0.81207137,0.72926483 0 0 0 -1.094673,-8.2e-4 z"
               stroke-width="0"
               fill="currentColor"
               id="path7"
               style="fill:#d97706;stroke:#d97706;stroke-width:1.28258;stroke-linecap:round;stroke-linejoin:round" /><text
               xml:space="preserve"
               style="font-size:19.7556px;font-family:'Arial Black';-inkscape-font-specification:'Arial Black, ';text-align:center;text-anchor:middle;fill:#d97706;fill-opacity:1;stroke-width:0.264583"
               x="37.142746"
               y="402.16074"
               id="text7"><tspan
                 id="tspan7"
                 style="font-size:19.7556px;text-align:center;text-anchor:middle;fill:#d97706;stroke-width:0.264583"
                 x="37.142746"
                 y="402.16074">S</tspan></text></g></g></g><g
         id="g16"
         transform="rotate(13.321476,-260.84936,1482.4491)"><g
           id="g26"
           transform="matrix(1.4007783,0,0,1.4007783,-498.42763,807.06758)"
           style="display:inline"><rect
             style="fill:#ffffff;stroke:#c3c3c3;stroke-width:1;stroke-dasharray:none;stroke-opacity:1"
             id="rect3"
             width="84.666664"
             height="116.41666"
             x="23.284767"
             y="387.27368"
             rx="5.2916665"
             ry="5.1971726" /><g
             id="g18"
             transform="translate(-0.04739859,-4.4716301)"><path
               d="m 63.660285,423.92228 a 4153.9384,3730.3636 0 0 0 -14.65869,12.04358 c -1.86398,1.60438 -3.60885,3.2355 -5.28226,4.92812 a 19.437739,17.455682 0 0 0 -0.93497,22.04688 l 0.41687,0.4733 c 3.01333,3.22215 7.62562,4.69282 12.07415,4.20884 l 0.73249,-0.099 -2.10218,5.66347 a 2.977595,2.673971 0 0 0 2.82572,3.51894 h 17.86558 l 0.35136,-0.0188 a 2.977595,2.673971 0 0 0 2.4714,-3.5029 l -2.04858,-5.52174 0.30966,0.0535 c 4.7314,0.6685 9.71292,-1.0348 12.86321,-4.77304 a 19.434762,17.45301 0 0 0 -0.92603,-22.04155 94.648805,84.997516 0 0 0 -5.24057,-4.89336 l -14.70336,-12.08101 a 2.977595,2.673971 0 0 0 -4.0138,-0.003 z"
               stroke-width="0"
               fill="currentColor"
               id="path10"
               style="fill:#d97706;stroke:#d97706;stroke-width:4.70278;stroke-linecap:round;stroke-linejoin:round" /><g
               style="fill:#f1f5f9"
               id="g1"
               transform="matrix(0.13453149,0,0,0.13453149,46.786806,433.62487)"><path
                 id="_x33_"
                 d="M 295.3,130.2 C 279.9,125.4 278.1,116.7 272.6,111.4 260.9,99.7 245.5,110 239.4,114.8 232.8,77.4 205.9,49.7 156.2,49.7 98,49.7 70.9,87.8 70.9,135 c 0,47.2 28,111.9 85.3,111.9 57.3,0 85.3,-64.6 85.3,-111.9 0,-0.5 0,-1.1 0,-1.6 10.5,3 11.2,14.9 11.2,14.9 0,0 0,24.1 21.3,24.1 -7.8,-14.4 -2.8,-21.8 -2.8,-29.3 0,-4.8 -1.6,-8.3 -3.7,-11.2 5.3,3.8 17.2,9.3 27.8,-1.7 z m -74.1,15.3 c 0,11.7 -9.6,21.5 -21.3,24.1 -5,1.1 -24.5,2.8 -44,2.8 v 0 0 c -19.5,0 -39,-1.6 -44,-2.8 -11.7,-2.3 -21.3,-12.2 -21.3,-24.1 v -6 c 0,-6 5,-10.5 10.5,-10.5 18.6,0 25.4,5.3 54.6,5.3 29.2,0 36,-5.3 54.6,-5.3 5.5,0 10.5,4.8 10.5,10.5 v 6 z"
                 style="fill:#f1f5f9" /><path
                 id="_x32__1_"
                 d="m 136.9,157.9 c -0.5,0 -0.7,0 -1.4,-0.2 l -30.3,-11 c -2.1,-0.7 -3.2,-3 -2.3,-5 0.7,-2.1 3,-3.2 5,-2.3 l 30.3,11 c 2.1,0.7 3.2,3 2.3,5 -0.4,1.6 -2,2.5 -3.6,2.5 z"
                 style="fill:#f1f5f9" /><path
                 id="_x32_"
                 d="m 175.1,157.9 c -1.6,0 -3.2,-1.1 -3.7,-2.8 -0.7,-2.1 0.2,-4.4 2.3,-5 l 30.3,-11 c 2.1,-0.7 4.4,0.2 5,2.3 0.7,2.1 -0.2,4.4 -2.3,5 l -30.3,11 c -0.1,0.5 -0.6,0.5 -1.3,0.5 z"
                 style="fill:#f1f5f9" /><path
                 id="_x31__1_"
                 d="m 90.5,48.6 c -2.1,-2.1 -5.3,-2.1 -7.6,0 L 76.3,55.2 29.6,8 C 26.6,5 22,5 19.3,8 L 11,16.2 c -3,3 -3,7.6 0,10.3 L 57.8,73.3 51.1,80 c -2.1,2.1 -2.1,5.3 0,7.6 1.1,1.4 2.3,1.8 3.7,1.8 1.4,0 2.8,-0.5 3.7,-1.6 l 6.6,-6.6 9.4,9.4 c 0.7,-1.6 1.6,-3.4 2.3,-5 l -8,-8 11.2,-11.4 6.2,6.2 c 1.1,-1.4 2.3,-2.8 3.7,-3.9 l -6,-6 6.6,-6.6 c 2.1,-2.1 2.1,-5.3 0,-7.3 z M 35.8,33.2 H 25.2 V 22.7 H 35.7 V 33.2 Z M 49.1,46.5 H 38.5 V 36 H 49 v 10.5 z m 2.5,13.3 V 49.3 h 10.5 v 10.5 z"
                 style="fill:#f1f5f9" /></g></g><g
             id="g24"
             transform="matrix(-1.0000034,0,0,-1,132.29918,885.51316)"
             style="fill:#000000"><path
               d="m 54.154815,387.77753 a 1132.8885,1017.3719 0 0 0 -3.997811,3.28461 c -0.508356,0.43756 -0.984228,0.88241 -1.440611,1.34403 a 5.3011836,4.7606406 0 0 0 -0.254991,6.01279 l 0.113691,0.12908 c 0.821815,0.87877 2.079708,1.27986 3.292939,1.14786 l 0.199769,-0.027 -0.57332,1.54459 a 0.81206862,0.72926483 0 0 0 0.770649,0.95971 h 4.872414 l 0.09583,-0.005 a 0.81206862,0.72926483 0 0 0 0.674016,-0.95534 l -0.558702,-1.50593 0.08445,0.0146 c 1.290378,0.18231 2.648969,-0.28222 3.508136,-1.30174 a 5.3003717,4.7599119 0 0 0 -0.252553,-6.01133 25.813223,23.181141 0 0 0 -1.429241,-1.33456 l -4.009993,-3.29482 a 0.81206862,0.72926483 0 0 0 -1.09467,-8.2e-4 z"
               stroke-width="0"
               fill="currentColor"
               id="path18"
               style="fill:#d97706;stroke:#d97706;stroke-width:1.28258;stroke-linecap:round;stroke-linejoin:round" /><text
               xml:space="preserve"
               style="font-size:19.7556px;font-family:'Arial Black';-inkscape-font-specification:'Arial Black, ';text-align:center;text-anchor:middle;fill:#d97706;fill-opacity:1;stroke-width:0.264583"
               x="37.142746"
               y="402.16074"
               id="text18"><tspan
                 id="tspan18"
                 style="font-size:19.7556px;text-align:center;text-anchor:middle;fill:#d97706;stroke-width:0.264583"
                 x="37.142746"
                 y="402.16074">S</tspan></text></g><g
             id="g25"
             transform="translate(-0.88797699,5.6259135)"
             style="fill:#000000"><path
               d="m 54.154814,387.77753 a 1132.8923,1017.3719 0 0 0 -3.997825,3.28461 c -0.508358,0.43756 -0.984231,0.88241 -1.440616,1.34403 a 5.3012016,4.7606406 0 0 0 -0.254992,6.01279 l 0.113692,0.12908 c 0.821817,0.87877 2.079715,1.27986 3.29295,1.14786 l 0.19977,-0.027 -0.573322,1.54459 a 0.81207137,0.72926483 0 0 0 0.770651,0.95971 h 4.872431 l 0.09583,-0.005 a 0.81207137,0.72926483 0 0 0 0.674018,-0.95534 l -0.558704,-1.50593 0.08445,0.0146 c 1.290382,0.18231 2.648978,-0.28222 3.508148,-1.30174 a 5.3003897,4.7599119 0 0 0 -0.252554,-6.01133 25.813311,23.181141 0 0 0 -1.429246,-1.33456 l -4.010007,-3.29482 a 0.81207137,0.72926483 0 0 0 -1.094673,-8.2e-4 z"
               stroke-width="0"
               fill="currentColor"
               id="path24"
               style="fill:#d97706;stroke:#d97706;stroke-width:1.28258;stroke-linecap:round;stroke-linejoin:round" /><text
               xml:space="preserve"
               style="font-size:19.7556px;font-family:'Arial Black';-inkscape-font-specification:'Arial Black, ';text-align:center;text-anchor:middle;fill:#d97706;fill-opacity:1;stroke-width:0.264583"
               x="37.142746"
               y="402.16074"
               id="text24"><tspan
                 id="tspan24"
                 style="font-size:19.7556px;text-align:center;text-anchor:middle;fill:#d97706;stroke-width:0.264583"
                 x="37.142746"
                 y="402.16074">S</tspan></text></g></g></g></g></g><style
     type="text/css"
     id="style1">&#10;	.st0{fill:#000000;}&#10;</style></svg>
