<?xml version="1.0" encoding="UTF-8" standalone="no"?>
<!-- Created with Inkscape (http://www.inkscape.org/) -->

<svg
   width="298.26352mm"
   height="298.26352mm"
   viewBox="0 0 298.26352 298.26352"
   version="1.1"
   id="svg1"
   inkscape:version="1.3 (0e150ed, 2023-07-21)"
   sodipodi:docname="coverTemplate.svg"
   xml:space="preserve"
   xmlns:inkscape="http://www.inkscape.org/namespaces/inkscape"
   xmlns:sodipodi="http://sodipodi.sourceforge.net/DTD/sodipodi-0.dtd"
   xmlns="http://www.w3.org/2000/svg"
   xmlns:svg="http://www.w3.org/2000/svg"><sodipodi:namedview
     id="namedview1"
     pagecolor="#ffffff"
     bordercolor="#000000"
     borderopacity="0.25"
     inkscape:showpageshadow="2"
     inkscape:pageopacity="0.0"
     inkscape:pagecheckerboard="0"
     inkscape:deskcolor="#d1d1d1"
     inkscape:document-units="mm"
     inkscape:zoom="0.32995813"
     inkscape:cx="360.65182"
     inkscape:cy="2229.0707"
     inkscape:window-width="1920"
     inkscape:window-height="1027"
     inkscape:window-x="0"
     inkscape:window-y="25"
     inkscape:window-maximized="1"
     inkscape:current-layer="svg1" /><defs
     id="defs1" /><rect
     style="fill:#059669;stroke:#059669;stroke-width:0;stroke-dasharray:none"
     id="rect15"
     width="298.26352"
     height="298.26349"
     x="-2.6557332e-06"
     y="1.5036003e-05"
     rx="0"
     ry="0"
     inkscape:label="Background"
     inkscape:export-filename="gameCovers/clearTheDungeon.svg"
     inkscape:export-xdpi="35.579765"
     inkscape:export-ydpi="35.579765" /><g
     id="g11"
     transform="translate(67.943286,-281.61504)"
     inkscape:export-filename="gameCovers/scoundrel.svg"
     inkscape:export-xdpi="35.579765"
     inkscape:export-ydpi="35.579765"
     inkscape:label="g11"><g
       id="g14"
       inkscape:label="AD"
       transform="matrix(1.3530479,-0.3625481,0.3625481,1.3530479,-205.58905,-149.02385)"
       inkscape:export-filename="colored/png/AD.png"
       inkscape:export-xdpi="35.579765"
       inkscape:export-ydpi="35.579765"><rect
         style="fill:#ffffff;stroke:#c3c3c3;stroke-width:1;stroke-dasharray:none;stroke-opacity:1"
         id="rect9"
         width="84.666664"
         height="116.41666"
         x="23.284767"
         y="387.27368"
         rx="5.2916665"
         ry="5.1971726"
         inkscape:label="Paper" /><g
         id="g10"
         inkscape:label="Center"
         transform="translate(-0.04739859,-4.4716301)"><path
           d="m 65.665495,423.32576 c -2.58277,0 -5.01265,0.97524 -6.5517,2.63075 l -17.82352,18.32207 c -2.95843,3.0187 -2.95843,8.19248 0,11.23242 l 17.86673,18.36462 a 8.1671837,6.5289892 0 0 0 13.06351,-0.0452 l 17.82022,-18.31944 c 2.95841,-3.01871 2.95841,-8.19246 0,-11.23241 l -17.86676,-18.36462 a 8.1306189,6.4997586 0 0 0 -6.50848,-2.58823 z"
           stroke-width="0"
           fill="currentColor"
           id="path9"
           style="fill:#0284c7;stroke:#0284c7;stroke-width:4.95253;stroke-linecap:round;stroke-linejoin:round"
           inkscape:label="Diamond" /></g><g
         id="g13"
         inkscape:label="CornerTop"
         transform="translate(-0.88797699,5.6259135)"
         style="fill:#000000"><path
           d="m 54.701689,387.6149 c -0.704392,0 -1.367086,0.26597 -1.786826,0.71747 l -4.860956,4.99693 c -0.806844,0.82328 -0.806844,2.23431 0,3.06338 l 4.87274,5.00853 a 2.2274118,1.7806319 0 0 0 3.562773,-0.0123 l 4.860056,-4.9962 c 0.806838,-0.82329 0.806838,-2.23431 0,-3.06338 l -4.872749,-5.00853 a 2.2174396,1.7726599 0 0 0 -1.775038,-0.70588 z"
           stroke-width="0"
           fill="currentColor"
           id="path12"
           style="fill:#0284c7;stroke:#0284c7;stroke-width:1.35069;stroke-linecap:round;stroke-linejoin:round"
           inkscape:label="Diamond" /><text
           xml:space="preserve"
           style="font-size:19.7556px;font-family:'Arial Black';-inkscape-font-specification:'Arial Black, ';text-align:center;text-anchor:middle;fill:#0284c7;fill-opacity:1;stroke:#0284c7;stroke-width:0.264583"
           x="37.142746"
           y="402.16074"
           id="text12"
           inkscape:label="Value"><tspan
             sodipodi:role="line"
             id="tspan12"
             style="font-size:19.7556px;text-align:center;text-anchor:middle;fill:#0284c7;stroke:#0284c7;stroke-width:0.264583"
             x="37.142746"
             y="402.16074">T</tspan></text></g></g><g
       id="g9"
       inkscape:label="AS"
       transform="matrix(1.4007783,0,0,1.4007783,-12.732404,-198.08594)"
       inkscape:export-filename="colored/png/AS.png"
       inkscape:export-xdpi="35.579765"
       inkscape:export-ydpi="35.579765"
       style="display:inline"><rect
         style="fill:#ffffff;stroke:#c3c3c3;stroke-width:1;stroke-dasharray:none;stroke-opacity:1"
         id="rect5"
         width="84.666664"
         height="116.41666"
         x="23.284767"
         y="387.27368"
         rx="5.2916665"
         ry="5.1971726"
         inkscape:label="Paper" /><g
         id="g6"
         inkscape:label="Center"
         transform="translate(-0.04739859,-4.4716301)"><path
           d="m 63.660285,423.92228 a 4153.9384,3730.3636 0 0 0 -14.65869,12.04358 c -1.86398,1.60438 -3.60885,3.2355 -5.28226,4.92812 a 19.437739,17.455682 0 0 0 -0.93497,22.04688 l 0.41687,0.4733 c 3.01333,3.22215 7.62562,4.69282 12.07415,4.20884 l 0.73249,-0.099 -2.10218,5.66347 a 2.977595,2.673971 0 0 0 2.82572,3.51894 h 17.86558 l 0.35136,-0.0188 a 2.977595,2.673971 0 0 0 2.4714,-3.5029 l -2.04858,-5.52174 0.30966,0.0535 c 4.7314,0.6685 9.71292,-1.0348 12.86321,-4.77304 a 19.434762,17.45301 0 0 0 -0.92603,-22.04155 94.648805,84.997516 0 0 0 -5.24057,-4.89336 l -14.70336,-12.08101 a 2.977595,2.673971 0 0 0 -4.0138,-0.003 z"
           stroke-width="0"
           fill="currentColor"
           id="path5"
           style="fill:#d97706;stroke:#d97706;stroke-width:4.70278;stroke-linecap:round;stroke-linejoin:round"
           inkscape:label="Spade" /></g><g
         id="g8"
         inkscape:label="CornerTop"
         transform="translate(-0.88797699,5.6259135)"
         style="fill:#000000"><path
           d="m 54.154814,387.77753 a 1132.8923,1017.3719 0 0 0 -3.997825,3.28461 c -0.508358,0.43756 -0.984231,0.88241 -1.440616,1.34403 a 5.3012016,4.7606406 0 0 0 -0.254992,6.01279 l 0.113692,0.12908 c 0.821817,0.87877 2.079715,1.27986 3.29295,1.14786 l 0.19977,-0.027 -0.573322,1.54459 a 0.81207137,0.72926483 0 0 0 0.770651,0.95971 h 4.872431 l 0.09583,-0.005 a 0.81207137,0.72926483 0 0 0 0.674018,-0.95534 l -0.558704,-1.50593 0.08445,0.0146 c 1.290382,0.18231 2.648978,-0.28222 3.508148,-1.30174 a 5.3003897,4.7599119 0 0 0 -0.252554,-6.01133 25.813311,23.181141 0 0 0 -1.429246,-1.33456 l -4.010007,-3.29482 a 0.81207137,0.72926483 0 0 0 -1.094673,-8.2e-4 z"
           stroke-width="0"
           fill="currentColor"
           id="path7"
           style="fill:#d97706;stroke:#d97706;stroke-width:1.28258;stroke-linecap:round;stroke-linejoin:round"
           inkscape:label="Spade" /><text
           xml:space="preserve"
           style="font-size:19.7556px;font-family:'Arial Black';-inkscape-font-specification:'Arial Black, ';text-align:center;text-anchor:middle;fill:#d97706;fill-opacity:1;stroke-width:0.264583"
           x="37.142746"
           y="402.16074"
           id="text7"
           inkscape:label="Value"><tspan
             sodipodi:role="line"
             id="tspan7"
             style="font-size:19.7556px;text-align:center;text-anchor:middle;fill:#d97706;stroke-width:0.264583"
             x="37.142746"
             y="402.16074">S</tspan></text></g></g><g
       id="g5"
       inkscape:label="AC"
       transform="matrix(1.3530479,0.3625481,-0.3625481,1.3530479,190.39713,-194.99955)"
       inkscape:export-filename="colored/png/AC.png"
       inkscape:export-xdpi="35.579765"
       inkscape:export-ydpi="35.579765"><rect
         style="fill:#ffffff;stroke:#c3c3c3;stroke-width:1;stroke-dasharray:none;stroke-opacity:1"
         id="rect1"
         width="84.666664"
         height="116.41666"
         x="23.284767"
         y="387.27368"
         rx="5.2916665"
         ry="5.1971726"
         inkscape:label="Paper" /><g
         id="g2"
         inkscape:label="Center"
         transform="translate(-0.04739859,-4.4716301)"><path
           d="m 65.678077,423.08811 a 13.430583,13.432769 0 0 0 -12.0553,7.51428 l -0.2767,0.60448 a 13.425212,13.427395 0 0 0 -0.8972,7.62174 l 0.072,0.37613 a 13.430583,13.432769 0 0 0 -8.3028,24.20316 l 0.5319,0.37611 a 13.425212,13.427395 0 0 0 11.8726,1.5582 l 0.4674,-0.17731 -2.0763,8.31488 a 2.6861168,2.6865537 0 0 0 2.6055,3.33939 h 16.1167 l 0.3035,-0.0161 a 2.6861168,2.6865537 0 0 0 2.302,-3.32327 l -2.079,-8.31489 0.4674,0.17463 a 13.430583,13.432769 0 1 0 4.1017,-26.13209 l 0.075,-0.37613 a 13.422526,13.424708 0 0 0 -13.2292,-15.7432 z"
           stroke-width="0"
           fill="currentColor"
           id="path1"
           style="fill:#16a34a;stroke:#16a34a;stroke-width:4.47722;stroke-linecap:round;stroke-linejoin:round"
           inkscape:label="Club" /><g
           style="fill:#fafafa"
           id="g15"
           transform="matrix(0.62081877,0,0,0.62081877,51.173613,436.77215)"><path
             d="M 33.3125,0 C 33.117188,0.0234375 32.9375,0.0820313 32.75,0.15625 L 7.34375,10.46875 c -0.640625,0.257813 -1.097656,0.816406 -1.21875,1.5 L 2.03125,35.25 c -0.050781,0.277344 -0.035156,0.546875 0.03125,0.8125 0.00391,0.0078 -0.00391,0.02344 0,0.03125 0.035156,0.128906 0.09375,0.253906 0.15625,0.375 C 2.234375,36.5 2.234375,36.535156 2.25,36.5625 2.339844,36.71875 2.460938,36.867188 2.59375,37 c 0.0625,0.07422 0.136719,0.136719 0.21875,0.1875 L 7.09375,41.5 c 0.246094,-0.601562 0.496094,-1.195312 0.625,-1.4375 0.433594,-0.800781 1.226563,-1.152344 1.84375,-1.4375 0.320313,-0.148437 0.621094,-0.273437 0.8125,-0.4375 0.21875,-0.195312 0.523438,-1.207031 0.75,-1.9375 0.570313,-1.847656 1.328125,-4.375 3.3125,-5.90625 0.589844,-0.453125 1.277344,-0.835937 1.9375,-1.1875 0.691406,-0.367187 1.359375,-0.714844 1.84375,-1.125 1.316406,-1.125 1.867188,-2.664062 2.46875,-4.3125 0.644531,-1.765625 1.320313,-3.59375 2.9375,-5.0625 1.023438,-0.929687 2.253906,-1.460937 3.4375,-1.96875 0.964844,-0.414062 1.882813,-0.792969 2.625,-1.375 0.664063,-0.519531 1.199219,-1.210937 1.78125,-1.9375 0.730469,-0.910156 1.484375,-1.867187 2.53125,-2.5625 0.308594,-0.203125 0.640625,-0.351562 0.96875,-0.53125 0.554688,-0.296875 1.070313,-0.578125 1.375,-0.96875 0.324219,-0.414062 0.445313,-1.011719 0.59375,-1.6875 0.121094,-0.546875 0.25,-1.128906 0.5,-1.6875 0.08984,-0.257812 0.417969,-1.019531 1.15625,-1.71875 L 35.0625,0.6875 C 35.023438,0.652344 34.980469,0.621094 34.9375,0.59375 34.652344,0.308594 34.289063,0.109375 33.90625,0.03125 33.714844,-0.0078125 33.507813,-0.0234375 33.3125,0 Z m -1.78125,2.8125 -27.21875,31 3.78125,-21.5 z M 40,5.625 C 39.492188,6.078125 39.347656,6.585938 39.34375,6.59375 L 39.28125,6.75 c -0.175781,0.378906 -0.265625,0.832031 -0.375,1.3125 -0.175781,0.796875 -0.367187,1.699219 -0.96875,2.46875 -0.5625,0.722656 -1.355469,1.136719 -2.03125,1.5 -0.273437,0.148438 -0.523437,0.296875 -0.78125,0.46875 -0.789062,0.523438 -1.433594,1.296875 -2.09375,2.125 -0.628906,0.785156 -1.277344,1.589844 -2.125,2.25 -0.949219,0.742188 -2.023437,1.210938 -3.0625,1.65625 -1.078125,0.460938 -2.101562,0.890625 -2.875,1.59375 -1.253906,1.140625 -1.816406,2.671875 -2.40625,4.28125 -0.664062,1.816406 -1.34375,3.691406 -3.0625,5.15625 -0.648437,0.554688 -1.429687,0.972656 -2.1875,1.375 -0.613281,0.324219 -1.171875,0.617188 -1.625,0.96875 -1.484375,1.148438 -2.136719,3.257813 -2.65625,4.9375 -0.394531,1.277344 -0.703125,2.285156 -1.34375,2.84375 -0.40625,0.355469 -0.898437,0.558594 -1.3125,0.75 C 9.972656,40.621094 9.613281,40.789063 9.5,41 9.378906,41.226563 9.003906,42.160156 8.65625,43.03125 l 2.6875,2.6875 0.09375,-0.4375 C 12.621094,40.839844 14.53125,39.914063 16.375,39 c 1.296875,-0.644531 2.621094,-1.300781 4.15625,-3.5 0.164063,-0.253906 0.527344,-1.347656 0.78125,-2.125 0.601563,-1.855469 1.355469,-4.160156 2.46875,-5.5625 0.925781,-1.164062 3.109375,-2.855469 5.875,-4.9375 0.972656,-0.730469 1.886719,-1.398437 2.375,-1.8125 1.289063,-1.097656 2.042969,-2.386719 2.90625,-3.875 1.488281,-2.5625 3.179688,-5.476562 8,-7.90625 l 0.15625,-0.0625 0.375,-0.15625 z M 22,8 c -0.550781,0 -1,0.449219 -1,1 0,0.550781 0.449219,1 1,1 0.550781,0 1,-0.449219 1,-1 0,-0.550781 -0.449219,-1 -1,-1 z m -6,3 c -0.550781,0 -1,0.449219 -1,1 0,0.550781 0.449219,1 1,1 0.550781,0 1,-0.449219 1,-1 0,-0.550781 -0.449219,-1 -1,-1 z M 45.84375,11.4375 44.1875,12 c -3.960937,2.019531 -5.261719,4.289063 -6.65625,6.6875 -0.917969,1.582031 -1.878906,3.226563 -3.5625,4.65625 -0.558594,0.472656 -1.476562,1.144531 -2.53125,1.9375 -1.820312,1.371094 -4.550781,3.453125 -5.3125,4.40625 -0.777344,0.980469 -1.46875,3.085938 -1.96875,4.625 -0.476562,1.46875 -0.761719,2.3125 -1.15625,2.875 -1.976562,2.832031 -3.828125,3.765625 -5.3125,4.5 -1.578125,0.78125 -2.53125,1.242188 -3.34375,4.28125 l -0.4375,2.28125 1.1875,1.15625 C 15.472656,49.78125 15.96875,50 16.5,50 c 0.02344,0 0.03906,0 0.0625,0 0.554688,-0.01953 1.105469,-0.269531 1.46875,-0.6875 L 47.5,15.71875 C 48.199219,14.921875 48.15625,13.746094 47.40625,13 Z M 11,14 c -0.550781,0 -1,0.449219 -1,1 0,0.550781 0.449219,1 1,1 0.550781,0 1,-0.449219 1,-1 0,-0.550781 -0.449219,-1 -1,-1 z m 4,2 c -0.550781,0 -1,0.449219 -1,1 0,0.550781 0.449219,1 1,1 0.550781,0 1,-0.449219 1,-1 0,-0.550781 -0.449219,-1 -1,-1 z m -6,6 c -0.550781,0 -1,0.449219 -1,1 0,0.550781 0.449219,1 1,1 0.550781,0 1,-0.449219 1,-1 0,-0.550781 -0.449219,-1 -1,-1 z"
             id="path1-2"
             style="fill:#fafafa" /></g></g><g
         id="g3"
         inkscape:label="CornerBottom"
         transform="matrix(-1.0000034,0,0,-1,132.29918,885.51316)"
         style="fill:#000000"><path
           d="m 54.705116,387.5501 a 3.6628772,3.6634858 0 0 0 -3.287801,2.04935 l -0.07546,0.16486 a 3.6614124,3.6620202 0 0 0 -0.24469,2.07866 l 0.01964,0.10258 a 3.6628772,3.6634858 0 0 0 -2.264394,6.60087 l 0.145063,0.10257 a 3.6614124,3.6620202 0 0 0 3.237974,0.42497 l 0.127472,-0.0484 -0.566262,2.2677 a 0.7325755,0.73269713 0 0 0 0.710589,0.91074 H 56.9027 l 0.08277,-0.004 a 0.7325755,0.73269713 0 0 0 0.627816,-0.90635 l -0.566998,-2.2677 0.127472,0.0476 a 3.6628772,3.6634858 0 1 0 1.118643,-7.12694 l 0.02045,-0.10258 a 3.6606799,3.6612874 0 0 0 -3.607954,-4.29361 z"
           stroke-width="0"
           fill="currentColor"
           id="path2"
           style="fill:#16a34a;stroke:#16a34a;stroke-width:1.22106;stroke-linecap:round;stroke-linejoin:round"
           inkscape:label="Club" /><text
           xml:space="preserve"
           style="font-size:19.7556px;font-family:'Arial Black';-inkscape-font-specification:'Arial Black, ';text-align:center;text-anchor:middle;fill:#16a34a;fill-opacity:1;stroke-width:0.264583"
           x="37.142746"
           y="402.16074"
           id="text2"
           inkscape:label="Value"><tspan
             sodipodi:role="line"
             id="tspan2"
             style="font-size:19.7556px;text-align:center;text-anchor:middle;fill:#16a34a;stroke-width:0.264583"
             x="37.142746"
             y="402.16074">G</tspan></text></g><g
         id="g4"
         inkscape:label="CornerTop"
         transform="translate(-0.88797699,5.6259135)"
         style="fill:#000000"><path
           d="m 54.705115,387.5501 a 3.6628897,3.6634858 0 0 0 -3.287812,2.04935 l -0.07546,0.16486 a 3.6614248,3.6620202 0 0 0 -0.244691,2.07866 l 0.01964,0.10258 a 3.6628897,3.6634858 0 0 0 -2.264402,6.60087 l 0.145064,0.10257 a 3.6614248,3.6620202 0 0 0 3.237985,0.42497 l 0.127472,-0.0484 -0.566264,2.2677 a 0.73257799,0.73269713 0 0 0 0.710592,0.91074 h 4.395468 l 0.08277,-0.004 a 0.73257799,0.73269713 0 0 0 0.627818,-0.90635 l -0.567,-2.2677 0.127473,0.0476 a 3.6628897,3.6634858 0 1 0 1.118646,-7.12694 l 0.02045,-0.10258 a 3.6606923,3.6612874 0 0 0 -3.607966,-4.29361 z"
           stroke-width="0"
           fill="currentColor"
           id="path3"
           style="fill:#16a34a;stroke:#16a34a;stroke-width:1.22106;stroke-linecap:round;stroke-linejoin:round"
           inkscape:label="Club" /><text
           xml:space="preserve"
           style="font-size:19.7556px;font-family:'Arial Black';-inkscape-font-specification:'Arial Black, ';text-align:center;text-anchor:middle;fill:#16a34a;fill-opacity:1;stroke-width:0.264583"
           x="37.142746"
           y="402.16074"
           id="text3"
           inkscape:label="Value"><tspan
             sodipodi:role="line"
             id="tspan3"
             style="font-size:19.7556px;text-align:center;text-anchor:middle;fill:#16a34a;stroke-width:0.264583"
             x="37.142746"
             y="402.16074">G</tspan></text></g></g></g></svg>
