<?xml version="1.0" encoding="UTF-8" standalone="no"?>
<!-- Created with Inkscape (http://www.inkscape.org/) -->

<svg
   width="300mm"
   height="100mm"
   viewBox="0 0 300 100"
   version="1.1"
   id="svg1"
   inkscape:version="1.3 (0e150ed, 2023-07-21)"
   sodipodi:docname="gameLogoTemplate.svg"
   xml:space="preserve"
   xmlns:inkscape="http://www.inkscape.org/namespaces/inkscape"
   xmlns:sodipodi="http://sodipodi.sourceforge.net/DTD/sodipodi-0.dtd"
   xmlns="http://www.w3.org/2000/svg"
   xmlns:svg="http://www.w3.org/2000/svg"><sodipodi:namedview
     id="namedview1"
     pagecolor="#ffffff"
     bordercolor="#000000"
     borderopacity="0.25"
     inkscape:showpageshadow="2"
     inkscape:pageopacity="0.0"
     inkscape:pagecheckerboard="0"
     inkscape:deskcolor="#d1d1d1"
     inkscape:document-units="mm"
     inkscape:zoom="0.48343114"
     inkscape:cx="321.65905"
     inkscape:cy="1568.9928"
     inkscape:window-width="1920"
     inkscape:window-height="1027"
     inkscape:window-x="0"
     inkscape:window-y="25"
     inkscape:window-maximized="1"
     inkscape:current-layer="svg1" /><defs
     id="defs1" /><rect
     style="display:none;fill:#059669;stroke:#059669;stroke-width:0"
     id="rect1"
     width="300"
     height="100"
     x="1.1293076e-06"
     y="1.0988268e-05"
     inkscape:label="Background" /><style
     type="text/css"
     id="style1">&#10;<![CDATA[
	.st0{fill:#000000;}
]]>&#10;</style><text
     xml:space="preserve"
     style="font-style:normal;font-variant:normal;font-weight:bold;font-stretch:normal;font-size:22.5778px;font-family:'Arial Black';-inkscape-font-specification:'Arial Black,  Bold';letter-spacing:-0.79375px;fill:#e2e8f0;stroke:none;stroke-width:1.5;stroke-dasharray:none"
     x="25.667749"
     y="77.619606"
     id="text7"
     inkscape:export-filename="gameLogos/theSandwichGuy.svg"
     inkscape:export-xdpi="96"
     inkscape:export-ydpi="96"><tspan
       sodipodi:role="line"
       id="tspan7"
       style="font-style:normal;font-variant:normal;font-weight:bold;font-stretch:normal;font-size:22.5778px;font-family:'Arial Black';-inkscape-font-specification:'Arial Black,  Bold';letter-spacing:-0.79375px;fill:#e2e8f0;stroke:none;stroke-width:1.5"
       x="25.667749"
       y="77.619606">THE SANDWICH GUY</tspan></text><style
     type="text/css"
     id="style1-8">&#10;<![CDATA[
	.st0{fill:#000000;}
]]>&#10;</style><style
     type="text/css"
     id="style1-5">&#10;<![CDATA[
	.st0{fill:#000000;}
]]>&#10;</style><style
     type="text/css"
     id="style1-3">&#10;<![CDATA[
	.st0{fill:#000000;}
]]>&#10;</style><g
     style="fill:#e2e8f0"
     id="g9"
     transform="matrix(0.79982385,0,0,0.79982385,130.00481,11.140509)"><path
       d="M 33.3125,0 C 33.117188,0.0234375 32.9375,0.0820313 32.75,0.15625 L 7.34375,10.46875 c -0.640625,0.257813 -1.097656,0.816406 -1.21875,1.5 L 2.03125,35.25 c -0.050781,0.277344 -0.035156,0.546875 0.03125,0.8125 0.00391,0.0078 -0.00391,0.02344 0,0.03125 0.035156,0.128906 0.09375,0.253906 0.15625,0.375 C 2.234375,36.5 2.234375,36.535156 2.25,36.5625 2.339844,36.71875 2.460938,36.867188 2.59375,37 c 0.0625,0.07422 0.136719,0.136719 0.21875,0.1875 L 7.09375,41.5 c 0.246094,-0.601562 0.496094,-1.195312 0.625,-1.4375 0.433594,-0.800781 1.226563,-1.152344 1.84375,-1.4375 0.320313,-0.148437 0.621094,-0.273437 0.8125,-0.4375 0.21875,-0.195312 0.523438,-1.207031 0.75,-1.9375 0.570313,-1.847656 1.328125,-4.375 3.3125,-5.90625 0.589844,-0.453125 1.277344,-0.835937 1.9375,-1.1875 0.691406,-0.367187 1.359375,-0.714844 1.84375,-1.125 1.316406,-1.125 1.867188,-2.664062 2.46875,-4.3125 0.644531,-1.765625 1.320313,-3.59375 2.9375,-5.0625 1.023438,-0.929687 2.253906,-1.460937 3.4375,-1.96875 0.964844,-0.414062 1.882813,-0.792969 2.625,-1.375 0.664063,-0.519531 1.199219,-1.210937 1.78125,-1.9375 0.730469,-0.910156 1.484375,-1.867187 2.53125,-2.5625 0.308594,-0.203125 0.640625,-0.351562 0.96875,-0.53125 0.554688,-0.296875 1.070313,-0.578125 1.375,-0.96875 0.324219,-0.414062 0.445313,-1.011719 0.59375,-1.6875 0.121094,-0.546875 0.25,-1.128906 0.5,-1.6875 0.08984,-0.257812 0.417969,-1.019531 1.15625,-1.71875 L 35.0625,0.6875 C 35.023438,0.652344 34.980469,0.621094 34.9375,0.59375 34.652344,0.308594 34.289063,0.109375 33.90625,0.03125 33.714844,-0.0078125 33.507813,-0.0234375 33.3125,0 Z m -1.78125,2.8125 -27.21875,31 3.78125,-21.5 z M 40,5.625 C 39.492188,6.078125 39.347656,6.585938 39.34375,6.59375 L 39.28125,6.75 c -0.175781,0.378906 -0.265625,0.832031 -0.375,1.3125 -0.175781,0.796875 -0.367187,1.699219 -0.96875,2.46875 -0.5625,0.722656 -1.355469,1.136719 -2.03125,1.5 -0.273437,0.148438 -0.523437,0.296875 -0.78125,0.46875 -0.789062,0.523438 -1.433594,1.296875 -2.09375,2.125 -0.628906,0.785156 -1.277344,1.589844 -2.125,2.25 -0.949219,0.742188 -2.023437,1.210938 -3.0625,1.65625 -1.078125,0.460938 -2.101562,0.890625 -2.875,1.59375 -1.253906,1.140625 -1.816406,2.671875 -2.40625,4.28125 -0.664062,1.816406 -1.34375,3.691406 -3.0625,5.15625 -0.648437,0.554688 -1.429687,0.972656 -2.1875,1.375 -0.613281,0.324219 -1.171875,0.617188 -1.625,0.96875 -1.484375,1.148438 -2.136719,3.257813 -2.65625,4.9375 -0.394531,1.277344 -0.703125,2.285156 -1.34375,2.84375 -0.40625,0.355469 -0.898437,0.558594 -1.3125,0.75 C 9.972656,40.621094 9.613281,40.789063 9.5,41 9.378906,41.226563 9.003906,42.160156 8.65625,43.03125 l 2.6875,2.6875 0.09375,-0.4375 C 12.621094,40.839844 14.53125,39.914063 16.375,39 c 1.296875,-0.644531 2.621094,-1.300781 4.15625,-3.5 0.164063,-0.253906 0.527344,-1.347656 0.78125,-2.125 0.601563,-1.855469 1.355469,-4.160156 2.46875,-5.5625 0.925781,-1.164062 3.109375,-2.855469 5.875,-4.9375 0.972656,-0.730469 1.886719,-1.398437 2.375,-1.8125 1.289063,-1.097656 2.042969,-2.386719 2.90625,-3.875 1.488281,-2.5625 3.179688,-5.476562 8,-7.90625 l 0.15625,-0.0625 0.375,-0.15625 z M 22,8 c -0.550781,0 -1,0.449219 -1,1 0,0.550781 0.449219,1 1,1 0.550781,0 1,-0.449219 1,-1 0,-0.550781 -0.449219,-1 -1,-1 z m -6,3 c -0.550781,0 -1,0.449219 -1,1 0,0.550781 0.449219,1 1,1 0.550781,0 1,-0.449219 1,-1 0,-0.550781 -0.449219,-1 -1,-1 z M 45.84375,11.4375 44.1875,12 c -3.960937,2.019531 -5.261719,4.289063 -6.65625,6.6875 -0.917969,1.582031 -1.878906,3.226563 -3.5625,4.65625 -0.558594,0.472656 -1.476562,1.144531 -2.53125,1.9375 -1.820312,1.371094 -4.550781,3.453125 -5.3125,4.40625 -0.777344,0.980469 -1.46875,3.085938 -1.96875,4.625 -0.476562,1.46875 -0.761719,2.3125 -1.15625,2.875 -1.976562,2.832031 -3.828125,3.765625 -5.3125,4.5 -1.578125,0.78125 -2.53125,1.242188 -3.34375,4.28125 l -0.4375,2.28125 1.1875,1.15625 C 15.472656,49.78125 15.96875,50 16.5,50 c 0.02344,0 0.03906,0 0.0625,0 0.554688,-0.01953 1.105469,-0.269531 1.46875,-0.6875 L 47.5,15.71875 C 48.199219,14.921875 48.15625,13.746094 47.40625,13 Z M 11,14 c -0.550781,0 -1,0.449219 -1,1 0,0.550781 0.449219,1 1,1 0.550781,0 1,-0.449219 1,-1 0,-0.550781 -0.449219,-1 -1,-1 z m 4,2 c -0.550781,0 -1,0.449219 -1,1 0,0.550781 0.449219,1 1,1 0.550781,0 1,-0.449219 1,-1 0,-0.550781 -0.449219,-1 -1,-1 z m -6,6 c -0.550781,0 -1,0.449219 -1,1 0,0.550781 0.449219,1 1,1 0.550781,0 1,-0.449219 1,-1 0,-0.550781 -0.449219,-1 -1,-1 z"
       id="path1-6"
       style="fill:#e2e8f0" /></g></svg>
